<svg xmlns="http://www.w3.org/2000/svg" width="3000" height="3000" viewBox="0 0 3000 3000"><g id="others"><path id="205" d="M 721.217,1258.042 C 715.203,1253.686 712,1247.628 712,1240.612 C 712,1233.680 713.823,1229.872 718.743,1226.529 C 723.081,1223.581 725.642,1223.414 733.068,1225.596 C 744.550,1228.970 748.540,1234.693 747.770,1246.685 C 747.018,1258.401 744.170,1261 732.085,1261 C 726.155,1261 724.786,1260.627 721.217,1258.042" stroke="#000000" fill="#000000" stroke-width="1" />
  <path id="205" d="M 648.837,1245.746 C 643.667,1243.092 642.081,1241.664 640.222,1237.996 C 638.250,1234.103 638.027,1232.561 638.567,1226.500 C 639.293,1218.356 640.543,1216.807 648.236,1214.523 C 652.951,1213.123 653.564,1213.155 657.831,1215.043 C 668.093,1219.582 672.990,1225.472 672.996,1233.282 C 673.007,1247.485 662.641,1252.834 648.837,1245.746" stroke="#000000" fill="#000000" stroke-width="1" />
  <path id="205" d="M 1161,1844.111 C 1159.205,1843.616 1158.407,1842.616 1158.170,1840.569 C 1157.774,1837.150 1159.016,1836.202 1163.103,1836.802 C 1166.702,1837.330 1167.689,1839.194 1166.153,1842.564 C 1164.974,1845.151 1164.876,1845.181 1161,1844.111" stroke="#000000" fill="#000000" stroke-width="1" />
  <path id="205" d="M 1101.366,1837.081 C 1094.206,1832.715 1090.320,1823.397 1092.888,1816.750 C 1095.649,1809.602 1106.769,1808.053 1113.935,1813.818 C 1119.948,1818.656 1122,1822.534 1122,1829.066 C 1122,1834.539 1121.826,1834.944 1118.632,1836.918 C 1114.187,1839.665 1105.735,1839.745 1101.366,1837.081" stroke="#000000" fill="#000000" stroke-width="1" />
  <path id="205" d="M 1083.342,1813.375 C 1079.607,1811.492 1076.011,1807.052 1076.005,1804.315 C 1075.984,1794.889 1087.014,1790.807 1094.117,1797.612 C 1096.627,1800.017 1096.859,1800.781 1096.338,1804.899 C 1095.670,1810.176 1093.748,1812.638 1089.305,1813.912 C 1087.071,1814.553 1085.376,1814.401 1083.342,1813.375" stroke="#000000" fill="#000000" stroke-width="1" />
  <path id="205" d="M 1110.238,1856.838 C 1108.603,1855.203 1108.672,1853.517 1110.436,1852.053 C 1112.575,1850.278 1116.214,1852.488 1115.811,1855.318 C 1115.455,1857.819 1112.126,1858.726 1110.238,1856.838" stroke="#000000" fill="#000000" stroke-width="1" />
  <path id="205" d="M 1244.500,1998.520 C 1243.950,1998.343 1241.025,1997.449 1238,1996.534 C 1221.030,1991.403 1210.027,1975.126 1208.288,1952.581 C 1207.686,1944.771 1207.550,1944.434 1203.121,1939.699 C 1200.619,1937.025 1193.511,1930.996 1187.324,1926.302 C 1176.656,1918.209 1175.661,1917.135 1168.039,1905.499 C 1159.357,1892.245 1151.926,1878.731 1150.037,1872.764 C 1149.387,1870.709 1148.482,1868.797 1148.026,1868.516 C 1147.571,1868.235 1143.817,1867.357 1139.686,1866.567 C 1135.555,1865.776 1130.447,1864.241 1128.337,1863.156 C 1119.425,1858.573 1115.575,1850.600 1118.611,1843.013 C 1120.510,1838.268 1129.286,1829.984 1132.358,1830.037 C 1136.959,1830.116 1147.952,1832.739 1150.398,1834.341 C 1154.142,1836.794 1156.996,1843.149 1157.689,1850.574 C 1158.022,1854.144 1158.643,1857.279 1159.069,1857.542 C 1159.494,1857.805 1162.918,1857.493 1166.678,1856.848 C 1166.678,1856.848 1173.514,1855.676 1173.514,1855.676 C 1173.514,1855.676 1182.396,1859.838 1182.396,1859.838 C 1202.038,1869.043 1216.502,1881.112 1224.402,1894.888 C 1229.627,1903.999 1235.805,1911.331 1240.149,1913.577 C 1242.369,1914.725 1243.904,1914.785 1248.083,1913.889 C 1253.886,1912.644 1261.038,1913.276 1268.500,1915.692 C 1282.730,1920.299 1292.477,1932.072 1296.572,1949.600 C 1298.713,1958.762 1298.064,1964.079 1293.697,1973.157 C 1285.026,1991.184 1272.860,1999.094 1254.068,1998.921 C 1249.355,1998.878 1245.050,1998.697 1244.500,1998.520" stroke="#000000" fill="#000000" stroke-width="1" />
  <path id="205" d="M 1223.983,1847.137 C 1220.869,1844.023 1220.831,1842.215 1223.807,1838.750 C 1225.592,1836.672 1232.809,1836.354 1235.183,1838.250 C 1236.399,1839.221 1236.610,1840.618 1236.125,1844.500 C 1236.125,1844.500 1235.500,1849.500 1235.500,1849.500 C 1235.500,1849.500 1231.231,1849.808 1231.231,1849.808 C 1227.609,1850.070 1226.512,1849.665 1223.983,1847.137" stroke="#000000" fill="#000000" stroke-width="1" />
  <path id="205" d="M 464.123,1197.998 C 462.266,1197.559 459.566,1196.326 458.123,1195.257 C 454.207,1192.355 448.820,1184.913 449.449,1183.273 C 449.752,1182.483 450,1179.857 450,1177.438 C 450,1173.197 450.182,1172.937 455.093,1170.132 C 460.026,1167.314 460.355,1167.263 465.625,1168.488 C 472.759,1170.146 479.830,1174.639 482.144,1178.984 C 483.220,1181.004 484,1184.513 484,1187.334 C 484,1191.534 483.535,1192.665 480.600,1195.600 C 477.621,1198.579 476.599,1198.988 472.350,1198.898 C 469.682,1198.842 465.980,1198.437 464.123,1197.998" stroke="#000000" fill="#000000" stroke-width="1" />
</g><g id="abstract"><path id="205" d="M 1277.435,2021.576 C 1276.361,2020.790 1275.924,2019.640 1276.315,2018.622 C 1277.238,2016.218 1279.919,2015.491 1281.614,2017.186 C 1284.495,2020.068 1280.751,2024.001 1277.435,2021.576" stroke="#000000" fill="#000000" stroke-width="1" />
  <path id="205" d="M 696.257,1754.180 C 694.739,1753.216 689.820,1739.099 690.576,1737.876 C 690.874,1737.394 691.712,1737 692.437,1737 C 694.568,1737 696.507,1734.107 695.231,1732.831 C 694.452,1732.052 694.942,1731.079 696.968,1729.374 C 700.597,1726.320 701.807,1726.381 702.630,1729.660 C 703.429,1732.844 701.374,1747.169 699.462,1751.746 C 697.961,1755.337 698.015,1755.296 696.257,1754.180" stroke="#000000" fill="#000000" stroke-width="1" />
  <path id="205" d="M 1295.667,1889.333 C 1294.834,1888.500 1294.800,1884.684 1295.607,1882.582 C 1296.292,1880.798 1301.983,1880.383 1303.599,1881.999 C 1304.149,1882.549 1304.415,1884.574 1304.190,1886.499 C 1303.805,1889.800 1303.569,1890 1300.057,1890 C 1298.009,1890 1296.034,1889.700 1295.667,1889.333" stroke="#000000" fill="#000000" stroke-width="1" />
  </g><g id="shape"><path id="205" d="M 1578.618,2424.931 C 1569.749,2423.705 1555.270,2418.854 1547,2414.338 C 1525.860,2402.794 1509.099,2385.823 1493.958,2360.631 C 1488.808,2352.062 1486.719,2349.423 1484.884,2349.165 C 1481.029,2348.624 1480.218,2347.105 1482.758,2345.186 C 1482.758,2345.186 1485.016,2343.479 1485.016,2343.479 C 1485.016,2343.479 1482.171,2336.736 1482.171,2336.736 C 1480.606,2333.027 1479.057,2329.724 1478.729,2329.396 C 1478.401,2329.068 1476.337,2330.243 1474.142,2332.006 C 1469.878,2335.433 1468,2335.297 1468,2331.563 C 1468,2328.562 1469.675,2327.243 1474.004,2326.832 C 1478.129,2326.441 1478.123,2327.254 1474.103,2311.756 C 1472.427,2305.297 1470.760,2296.972 1470.398,2293.256 C 1470.021,2289.393 1469.064,2285.726 1468.164,2284.694 C 1466.930,2283.279 1466.835,2282.493 1467.727,2281.065 C 1468.589,2279.685 1468.457,2274.900 1467.183,2261.371 C 1465.691,2245.523 1465.533,2229.464 1465.792,2119.500 C 1466.096,1990.561 1465.838,1979.967 1461.887,1959.265 C 1454.630,1921.240 1436.162,1896.763 1402.500,1880.550 C 1385.311,1872.271 1373.047,1868.298 1317.500,1853.011 C 1260.249,1837.255 1210.506,1821.578 1161.500,1803.846 C 1143.350,1797.279 1126.747,1791.229 1124.606,1790.403 C 1120.842,1788.951 1120.625,1788.985 1118.106,1791.392 C 1114.915,1794.441 1107.386,1797.952 1104,1797.969 C 1098.575,1797.996 1083,1785.889 1083,1781.645 C 1083,1779.301 1080.788,1778.256 1074.262,1777.515 C 1068.335,1776.842 1067.979,1776.923 1067.118,1779.153 C 1065.839,1782.465 1062.022,1785.676 1058.500,1786.402 C 1054.746,1787.175 1049.373,1784.111 1047.959,1780.391 C 1047.058,1778.022 1046.626,1777.847 1043.234,1778.475 C 1028.501,1781.204 1016.798,1788.004 1002.918,1801.903 C 986.401,1818.442 976.598,1834.501 961.047,1870.494 C 941.917,1914.770 921.264,1946.946 895.571,1972.500 C 888.382,1979.650 878.450,1988.357 873.500,1991.849 C 861.743,2000.142 844.988,2008.263 832.500,2011.722 C 823.177,2014.304 821.248,2014.488 804,2014.428 C 787.054,2014.369 784.660,2014.134 775.500,2011.626 C 737.202,2001.142 708.235,1977.723 691.070,1943.365 C 681.526,1924.262 678.491,1909.007 679.357,1884.500 C 680.855,1842.100 691.033,1815.255 733.951,1740.500 C 752.397,1708.370 763.673,1686.370 766.928,1676.161 C 771.934,1660.462 771.802,1645.588 766.518,1630.052 C 764.077,1622.874 758.332,1611.285 755.195,1607.211 C 753.498,1605.007 753.295,1604.979 749.748,1606.461 C 744.458,1608.671 743.131,1608.419 739.437,1604.502 C 736.502,1601.390 736.238,1600.656 737.045,1597.842 C 737.544,1596.103 738.956,1593.611 740.182,1592.306 C 740.182,1592.306 742.411,1589.933 742.411,1589.933 C 742.411,1589.933 736.817,1584.339 736.817,1584.339 C 731.069,1578.591 729,1578.146 729,1582.658 C 729,1584.210 727.792,1586.326 725.894,1588.099 C 723.352,1590.474 721.910,1591 717.945,1591 C 713.655,1591 712.820,1590.629 710.629,1587.750 C 708.048,1584.358 706.376,1579.566 706.879,1577 C 707.408,1574.299 711.253,1571.043 714.671,1570.402 C 718.681,1569.650 719.625,1568.458 717.877,1566.352 C 717.165,1565.494 710.057,1559.343 702.081,1552.684 C 662.509,1519.644 621.111,1480.153 605.390,1460.446 C 589.939,1441.078 578.046,1421.117 571.026,1402.771 C 559.917,1373.737 562.099,1351.088 577.322,1337.401 C 593.464,1322.888 618.577,1320.983 646.500,1332.155 C 664.256,1339.259 689.976,1353.134 707.669,1365.153 C 707.669,1365.153 711.838,1367.985 711.838,1367.985 C 711.838,1367.985 717.408,1362.547 717.408,1362.547 C 724.965,1355.170 731.141,1353.128 740.619,1354.874 C 756.819,1357.859 765.375,1366.861 768.127,1383.814 C 769.042,1389.452 769.043,1392.303 768.130,1396.259 C 766.641,1402.708 766.350,1402.401 784,1412.999 C 819.849,1434.525 846.224,1444 870.297,1444 C 882.516,1444 890.702,1442.145 901.774,1436.865 C 933.737,1421.624 940.499,1387.186 916.258,1363.092 C 905.860,1352.758 893.421,1346.770 848.500,1330.478 C 814.724,1318.228 800.736,1311.675 786.024,1301.214 C 777.018,1294.810 771.078,1288.480 766.979,1280.919 C 763.700,1274.870 763.500,1273.952 763.503,1265 C 763.505,1256.958 763.867,1254.809 765.865,1251 C 771.842,1239.603 780.809,1231.083 793.500,1224.741 C 800.795,1221.096 818.732,1215.536 832.500,1212.652 C 859.333,1207.032 873.675,1206.008 940,1204.978 C 1011.360,1203.870 1029.005,1202.335 1049.856,1195.419 C 1080.897,1185.123 1106.040,1164.944 1134.733,1127.297 C 1144.943,1113.901 1185.541,1054.255 1199.101,1032.729 C 1214.237,1008.702 1224.067,986.788 1225.614,973.626 C 1227.671,956.121 1215.507,941.065 1193.711,934.143 C 1176.897,928.803 1173.188,928.495 1126.500,928.558 C 1048.102,928.663 984.431,934.939 893.500,951.522 C 847.265,959.954 838.253,961.097 813.500,961.672 C 796.592,962.065 789.185,961.827 781.500,960.644 C 744.605,954.964 717.329,937.155 702.003,908.743 C 693.846,893.621 690.709,880.729 690.748,862.500 C 690.781,847.244 692.772,838.204 698.943,825.294 C 704.687,813.279 710.215,805.570 720.035,795.884 C 758.501,757.942 830.667,736.614 947,728.808 C 972.684,727.085 1080.494,727.098 1115,728.828 C 1176.090,731.891 1241.350,736.155 1251.500,737.747 C 1267.489,740.255 1306.985,740.215 1319.464,737.678 C 1348.713,731.732 1370.619,720.281 1390.588,700.500 C 1413.718,677.589 1429.473,650.818 1456.502,588.500 C 1490.690,509.677 1504.862,482.862 1525.323,458.278 C 1545.497,434.039 1573.588,417.372 1597.521,415.441 C 1607.480,414.638 1625.899,416.330 1637.037,419.072 C 1648.282,421.840 1663.943,429.548 1672.137,436.349 C 1708.400,466.445 1719.812,526.569 1708.933,630.211 C 1707.853,640.502 1705.200,662.552 1703.039,679.211 C 1697.046,725.398 1696.002,735.549 1696.001,747.640 C 1695.998,777.056 1706.273,801.521 1727.440,822.500 C 1741.227,836.164 1759.221,847.237 1780,854.842 C 1837.677,875.952 1876.416,890.968 1920.883,909.451 C 1960.517,925.925 1977.074,930.435 1998,930.458 C 2010.966,930.472 2020.008,928.587 2029.014,923.993 C 2035.895,920.482 2045.111,912.712 2050.380,905.978 C 2066.159,885.812 2074.728,858.650 2092.490,772.500 C 2102.004,726.358 2107.378,704.817 2115.521,680.188 C 2125.076,651.286 2134.329,633.417 2149.020,615.500 C 2166.185,594.565 2191.347,577.386 2214.500,570.794 C 2225.134,567.766 2250.750,567.478 2261,570.271 C 2282.638,576.167 2303.960,592.007 2317.169,612 C 2347.935,658.567 2350.839,715.131 2326.489,793.500 C 2317.476,822.508 2307.354,847.930 2279.509,911.500 C 2246.746,986.298 2239.705,1008.888 2241.352,1033.917 C 2243.526,1066.944 2261.158,1091.270 2316.500,1137.593 C 2351.429,1166.830 2366.710,1180.667 2392.571,1206.475 C 2434.037,1247.857 2462.009,1281.553 2490.964,1325 C 2506.824,1348.799 2511.857,1357.365 2520.470,1375.223 C 2535.624,1406.643 2544.681,1438.370 2549.097,1475.500 C 2550.616,1488.273 2550.616,1523.367 2549.097,1537 C 2542.428,1596.848 2520.154,1650.630 2481.961,1699.102 C 2471.049,1712.951 2441.301,1742.335 2427,1753.390 C 2402.108,1772.633 2375.409,1788.770 2337.500,1807.487 C 2254.237,1848.596 2158.769,1877.278 2036.500,1897.918 C 1989.418,1905.866 1983.167,1906.687 1940.500,1910.530 C 1895.102,1914.619 1874.114,1918.242 1852.591,1925.704 C 1831.976,1932.852 1819.146,1940.844 1805.701,1954.917 C 1780.212,1981.596 1760.565,2020.730 1744.595,2076.629 C 1738.249,2098.841 1732.700,2123.100 1733.728,2124.128 C 1734.198,2124.599 1736.042,2124.562 1737.840,2124.046 C 1740.905,2123.167 1741.060,2123.242 1740.426,2125.305 C 1739.601,2127.990 1740.216,2127.570 1735.537,2128.646 C 1735.537,2128.646 1731.573,2129.558 1731.573,2129.558 C 1731.573,2129.558 1729.832,2138.029 1729.832,2138.029 C 1726.777,2152.893 1727.833,2156.354 1734.289,2152.649 C 1736.545,2151.354 1737.566,2151.225 1738.620,2152.100 C 1740.640,2153.777 1740.453,2154.245 1735.309,2160.363 C 1731.629,2164.739 1730.158,2165.827 1728.485,2165.407 C 1727.311,2165.112 1725.892,2165.463 1725.328,2166.186 C 1724.765,2166.909 1723.292,2173.734 1722.056,2181.354 C 1719.609,2196.436 1719.965,2198.788 1724.275,2196.022 C 1731.855,2191.157 1741.720,2186.001 1742.989,2186.241 C 1745.758,2186.765 1745.052,2189.475 1741.749,2191 C 1737.409,2193.004 1737.254,2195.054 1741.025,2200.536 C 1744.254,2205.229 1744.568,2210 1741.648,2210 C 1739.505,2210 1739,2208.869 1740.169,2206.685 C 1741.112,2204.924 1740.753,2204.162 1737.648,2201.316 C 1733.242,2197.278 1732.454,2197.221 1730.601,2200.805 C 1729.803,2202.348 1727.947,2204.159 1722.731,2209.917 C 1720.044,2210.945 1717.465,2213.748 1716.608,2216.571 C 1716.157,2218.056 1716.926,2219.738 1719.326,2222.514 C 1719.326,2222.514 1722.673,2226.387 1722.673,2226.387 C 1722.673,2226.387 1727.587,2224.300 1727.587,2224.300 C 1730.289,2223.152 1734.303,2221.920 1736.507,2221.560 C 1740.191,2220.959 1740.654,2221.144 1742.257,2223.857 C 1743.216,2225.480 1744.010,2227.414 1744.021,2228.154 C 1744.032,2228.894 1740.545,2232.721 1736.271,2236.659 C 1736.271,2236.659 1728.500,2243.819 1728.500,2243.819 C 1728.500,2243.819 1731.380,2246.850 1731.380,2246.850 C 1734.698,2250.341 1734.622,2250.721 1728.942,2259.085 C 1726.684,2262.410 1725.084,2265.777 1725.387,2266.566 C 1726.038,2268.263 1732.083,2268.517 1733.686,2266.914 C 1735.342,2265.258 1745.528,2266.882 1749.278,2269.401 C 1751.333,2270.781 1752.614,2272.549 1752.816,2274.282 C 1753.174,2277.358 1753.179,2277.357 1744,2277.441 C 1738.701,2277.489 1737.196,2277.134 1735.857,2275.523 C 1734.354,2273.714 1733.983,2273.671 1731.486,2275.007 C 1729.985,2275.810 1728.522,2277.082 1728.234,2277.833 C 1727.946,2278.584 1725.880,2280.906 1723.643,2282.992 C 1720.182,2286.220 1719.769,2287.017 1720.868,2288.341 C 1721.578,2289.197 1723.699,2290.405 1725.580,2291.026 C 1727.461,2291.647 1729,2292.334 1729,2292.553 C 1729,2292.772 1728.102,2294.425 1727.004,2296.226 C 1724.224,2300.785 1724.431,2301.510 1729.185,2303.862 C 1729.185,2303.862 1733.370,2305.932 1733.370,2305.932 C 1733.370,2305.932 1737.031,2301.966 1737.031,2301.966 C 1737.031,2301.966 1740.693,2298 1740.693,2298 C 1740.693,2298 1748.878,2298 1748.878,2298 C 1758.426,2298 1759.194,2298.739 1756.049,2304.903 C 1753.781,2309.350 1752.908,2309.799 1751,2307.500 C 1749.410,2305.584 1747.584,2305.591 1745.984,2307.519 C 1744.957,2308.757 1745.027,2309.371 1746.362,2310.847 C 1748.447,2313.151 1748.536,2320.311 1746.500,2322 C 1744.181,2323.924 1744.691,2326.730 1748.500,2333 C 1750.425,2336.169 1752,2339.003 1752,2339.297 C 1752,2339.591 1750.258,2341.212 1748.128,2342.899 C 1748.128,2342.899 1744.255,2345.966 1744.255,2345.966 C 1744.255,2345.966 1739.579,2344.372 1739.579,2344.372 C 1735.209,2342.883 1734.774,2342.894 1732.951,2344.544 C 1731.878,2345.515 1731,2347.596 1731,2349.168 C 1731,2350.740 1730.487,2352.849 1729.859,2353.854 C 1728.578,2355.906 1729.447,2362.541 1738.565,2363.136 C 1739.906,2364.477 1739.675,2365.291 1736.468,2370.571 C 1733.763,2375.025 1732.985,2377.265 1733.342,2379.574 C 1733.730,2382.080 1733.340,2382.937 1731.232,2384.216 C 1728.808,2385.687 1728.540,2385.653 1726.931,2383.666 C 1725.372,2381.741 1724.976,2381.675 1722.607,2382.943 C 1720.463,2384.090 1719.575,2384.110 1717.609,2383.058 C 1715.516,2381.938 1714.827,2382.067 1712.082,2384.097 C 1710.051,2385.598 1709.156,2386.960 1709.543,2387.958 C 1709.871,2388.806 1710.390,2390.738 1706,2393.423 C 1706,2392.556 1704.650,2390.496 1703,2388.846 C 1701.155,2387.001 1700,2384.811 1700,2383.158 C 1700,2381.680 1699.098,2378.786 1697.994,2376.727 C 1697.994,2376.727 1695.987,2372.983 1695.987,2372.983 C 1695.987,2372.983 1699.153,2370.155 1699.153,2370.155 C 1702.975,2366.740 1702.276,2364.523 1697.623,2365.305 C 1695.905,2365.594 1693.719,2366.139 1688.161,2362 C 1687.673,2362 1686.030,2364.812 1684.510,2368.250 C 1682.990,2371.688 1680.820,2375.518 1679.687,2376.763 C 1678.107,2378.499 1677.901,2379.301 1678.803,2380.203 C 1679.705,2381.105 1680.806,2380.986 1683.524,2379.690 C 1688.850,2377.150 1690.388,2377.423 1689.492,2380.750 C 1689.085,2382.262 1688.715,2385.147 1688.671,2387.160 C 1688.599,2390.439 1688.326,2390.804 1686.046,2390.660 C 1683.866,2390.523 1683.539,2390.876 1683.767,2393.115 C 1684.003,2395.430 1683.523,2395.873 1679.596,2396.973 C 1674.156,2398.496 1672.607,2397.716 1673.382,2393.841 C 1674.430,2388.599 1671.485,2389.221 1664.712,2395.675 C 1661.296,2398.930 1656.812,2402.863 1654.750,2404.415 C 1652.688,2405.967 1651,2408.077 1651,2409.104 C 1651,2411.801 1643.466,2416.632 1641.633,2415.110 C 1640.574,2414.231 1639.144,2414.438 1635.512,2415.995 C 1630.702,2418.057 1630.521,2418.476 1632.444,2423.121 C 1632.890,2427.767 1627.069,2423.886 1627.171,2422.090 C 1625.521,2420.179 1625.379,2420.185 1616.148,2422.565 C 1605.364,2425.346 1589.058,2426.374 1578.618,2424.931M 1710.450,2380.888 C 1712.239,2379.216 1709.560,2377.837 1706.663,2378.938 C 1704.019,2379.943 1703.378,2381.044 1704.678,2382.344 C 1705.451,2383.117 1709.030,2382.214 1710.450,2380.888M 1727.708,2368.318 C 1728.063,2367.393 1727.638,2364.648 1726.764,2362.217 C 1725.547,2358.832 1725.418,2357.098 1726.215,2354.812 C 1727.039,2352.448 1726.937,2351.508 1725.724,2350.295 C 1724.881,2349.452 1723.717,2349.058 1723.135,2349.417 C 1721.310,2350.545 1720.675,2357.084 1721.884,2362.320 C 1723.521,2369.413 1726.221,2372.193 1727.708,2368.318M 1713.551,2360.532 C 1715.327,2356.282 1715.335,2355.840 1713.681,2353.578 C 1712.418,2351.851 1712.183,2351.866 1708.129,2353.934 C 1704.582,2355.744 1703.998,2356.451 1704.534,2358.297 C 1705.289,2360.898 1708.622,2364 1710.662,2364 C 1711.454,2364 1712.754,2362.439 1713.551,2360.532M 1711.807,2326.098 C 1712.161,2319.885 1710.859,2317.712 1708.308,2320.263 C 1706.857,2321.714 1706.811,2322.278 1709.843,2331.796 C 1711.093,2331.559 1711.575,2330.159 1711.807,2326.098M 1739.828,2323.628 C 1740.295,2319.546 1738.685,2318.322 1735.551,2320.375 C 1731.369,2323.115 1732.299,2327.340 1736.963,2326.796 C 1738.927,2326.567 1739.574,2325.850 1739.828,2323.628M 1719.750,2310.250 C 1720.297,2308.608 1717.164,2307.436 1715.820,2308.780 C 1715.245,2309.355 1715.092,2310.340 1715.480,2310.968 C 1716.364,2312.398 1719.193,2311.922 1719.750,2310.250M 1746.750,2303.250 C 1747.297,2301.608 1744.164,2300.436 1742.820,2301.780 C 1742.245,2302.355 1742.092,2303.340 1742.480,2303.968 C 1743.364,2305.398 1746.193,2304.922 1746.750,2303.250M 1717.554,2266.913 C 1718.585,2265.246 1716.267,2263.333 1714.887,2264.713 C 1713.733,2265.867 1714.455,2268 1716,2268 C 1716.485,2268 1717.184,2267.511 1717.554,2266.913M 1728.194,2237.473 C 1730.027,2233.450 1727.946,2232.181 1723.445,2234.578 C 1721.459,2235.635 1719.620,2236.837 1719.358,2237.250 C 1718.378,2238.794 1720.230,2240 1723.580,2240 C 1726.313,2240 1727.285,2239.468 1728.194,2237.473M 1740.750,2228.250 C 1741.297,2226.608 1738.164,2225.436 1736.820,2226.780 C 1736.245,2227.355 1736.092,2228.340 1736.480,2228.968 C 1737.364,2230.398 1740.193,2229.922 1740.750,2228.250M 2019,1733.975 C 2094.748,1731.080 2158.118,1720.806 2219.589,1701.454 C 2268.226,1686.142 2317.311,1663.249 2351.500,1639.931 C 2417.254,1595.084 2438.405,1526.984 2411.529,1446.655 C 2396.007,1400.261 2365.702,1353.104 2322.500,1308.115 C 2306.771,1291.736 2265.365,1255.250 2244.500,1239.385 C 2215.184,1217.094 2189.614,1204.559 2168.206,1201.983 C 2138.753,1198.439 2113.430,1215.770 2095.458,1251.775 C 2089.718,1263.275 2083.320,1279.544 2081.495,1287.284 C 2077.298,1305.082 2082.204,1322.720 2094.997,1335.835 C 2106.362,1347.485 2115.750,1352.345 2144.500,1361.460 C 2220.932,1385.693 2237.983,1391.883 2262.458,1404.280 C 2309.939,1428.331 2330.561,1454.205 2328.708,1487.408 C 2327.698,1505.516 2323.694,1513.324 2307.342,1529.070 C 2280.599,1554.823 2242.763,1569.526 2188,1575.445 C 2153.372,1579.188 2096.562,1580.038 2057.962,1577.391 C 2029.274,1575.423 1997.337,1575.193 1986.500,1576.875 C 1976.170,1578.478 1965.457,1581.362 1957.684,1584.631 C 1927.442,1597.349 1898.342,1636.025 1891.426,1672.688 C 1887.690,1692.496 1892.844,1710.248 1905.255,1720.319 C 1916.639,1729.557 1928.658,1732.913 1954,1733.931 C 1982.249,1735.065 1990.327,1735.071 2019,1733.975M 1720.200,1703.178 C 1743.944,1691.722 1764.508,1667.010 1781.094,1630 C 1788.717,1612.990 1805.611,1571.166 1807.380,1564.924 C 1812.511,1546.822 1808.824,1529.798 1797.440,1519.031 C 1788.410,1510.491 1771.388,1503.906 1730,1492.941 C 1696.933,1484.181 1690.918,1482.981 1679.500,1482.871 C 1664.066,1482.722 1654.472,1487.219 1648.505,1497.401 C 1642.035,1508.441 1640.425,1535.041 1643.839,1574.500 C 1644.981,1587.700 1646.424,1604.800 1647.045,1612.500 C 1649.576,1643.870 1655.640,1668.437 1664.666,1683.889 C 1667.954,1689.518 1677.412,1699.609 1681.500,1701.852 C 1689.142,1706.044 1693.314,1706.960 1703.500,1706.683 C 1712.418,1706.441 1714.225,1706.061 1720.200,1703.178M 1433,1655.965 C 1455.825,1652.383 1469.828,1633.575 1475.041,1599.500 C 1477.950,1580.485 1476.931,1513.261 1473.427,1493 C 1471.252,1480.421 1467.666,1469.176 1462.901,1460 C 1451.601,1438.236 1430.923,1425.588 1393.328,1417.446 C 1379.784,1414.513 1317.516,1404.571 1290.209,1400.983 C 1246.087,1395.185 1214.738,1400.134 1193.500,1416.249 C 1185.246,1422.512 1167.625,1440.791 1160.259,1450.729 C 1131.534,1489.488 1119.824,1531.958 1131.506,1555.012 C 1138.787,1569.381 1159.092,1582.881 1191.500,1594.903 C 1214.197,1603.322 1296.385,1628.551 1332,1638.030 C 1362.349,1646.108 1404.486,1654.903 1419.500,1656.293 C 1421.700,1656.497 1424.175,1656.736 1425,1656.824 C 1425.825,1656.912 1429.425,1656.526 1433,1655.965M 1849.500,1334.111 C 1880.756,1325.794 1899.413,1308.620 1917.522,1271.500 C 1924.619,1256.953 1956.405,1180.855 1960.512,1168.583 C 1968.879,1143.577 1969.383,1120.647 1961.892,1105.719 C 1954.881,1091.747 1942.564,1081.369 1919.500,1070.001 C 1903.569,1062.149 1872.989,1050.208 1853,1044.033 C 1847.225,1042.249 1828.550,1035.714 1811.500,1029.511 C 1758.153,1010.102 1737.722,1004.841 1710,1003.379 C 1688.676,1002.254 1677.440,1005.560 1666.958,1016.042 C 1652.453,1030.547 1646.282,1054.082 1644.022,1103.523 C 1642.153,1144.406 1641.064,1163.128 1639.429,1182.500 C 1637.245,1208.373 1637.935,1242.366 1640.924,1256.199 C 1645.002,1275.069 1652.159,1291.743 1659.823,1300.226 C 1667.605,1308.840 1679.764,1315.930 1695.233,1320.872 C 1713.063,1326.569 1732.294,1329.647 1786.500,1335.481 C 1806.184,1337.600 1839.077,1336.884 1849.500,1334.111M 1449.630,1276.001 C 1457.456,1273.315 1462.846,1268.675 1466.677,1261.326 C 1472.922,1249.345 1473.842,1241.773 1475.036,1192.500 C 1476.557,1129.742 1474.208,1098.675 1466.264,1076.500 C 1461.930,1064.400 1456.069,1056.468 1449.685,1054.061 C 1446,1052.672 1439.161,1052.710 1434.899,1054.143 C 1420.370,1059.029 1396.904,1083.865 1375.869,1116.619 C 1368.703,1127.778 1357.965,1143.167 1337.816,1171.159 C 1304.127,1217.961 1297.906,1243.121 1317.156,1254.719 C 1329.157,1261.949 1343.738,1266.134 1372,1270.457 C 1381.075,1271.845 1391.761,1273.691 1395.746,1274.558 C 1417.865,1279.371 1438.223,1279.916 1449.630,1276.001" stroke="#000000" fill="#000000" stroke-width="1" />
  </g><g id="splatter"><path id="205" d="M 1687,2430.582 C 1687,2426.636 1688.066,2425 1690.638,2425 C 1693.820,2425 1694.564,2427.210 1692.461,2430.419 C 1690.254,2433.787 1687,2433.884 1687,2430.582" stroke="#000000" fill="#000000" stroke-width="1" />
  <path id="205" d="M 1754.726,2254.750 C 1755.310,2252.314 1758.734,2249.058 1760.750,2249.022 C 1762.266,2248.995 1762.387,2252.409 1760.965,2255.066 C 1760.310,2256.289 1758.873,2257 1757.058,2257 C 1754.587,2257 1754.262,2256.686 1754.726,2254.750" stroke="#000000" fill="#000000" stroke-width="1" />
  <path id="205" d="M 1789.667,2413.333 C 1786.937,2410.604 1791.343,2406.067 1794.489,2408.368 C 1795.945,2409.433 1796.049,2410.038 1795.091,2411.829 C 1793.975,2413.915 1791.058,2414.724 1789.667,2413.333" stroke="#000000" fill="#000000" stroke-width="1" />
  <path id="205" d="M 1765.187,2213.250 C 1765.370,2212.288 1766.563,2211.351 1767.838,2211.170 C 1769.903,2210.876 1770.035,2211.067 1769.043,2212.920 C 1767.677,2215.473 1764.715,2215.726 1765.187,2213.250" stroke="#000000" fill="#000000" stroke-width="1" />
  <path id="205" d="M 1858.667,2244.333 C 1857.394,2243.060 1858.009,2239.211 1859.582,2238.607 C 1861.753,2237.774 1861.700,2237.744 1862.315,2240.096 C 1863.276,2243.771 1860.884,2246.550 1858.667,2244.333" stroke="#000000" fill="#000000" stroke-width="1" />
  <path id="205" d="M 1565,2512.547 C 1565,2510.193 1567.683,2507 1569.661,2507 C 1572.015,2507 1572.557,2508.384 1571.393,2511.418 C 1570.862,2512.800 1565,2513.836 1565,2512.547" stroke="#000000" fill="#000000" stroke-width="1" />
  <path id="205" d="M 1824.250,2272.476 C 1821.619,2270.617 1821.382,2268.757 1823.548,2266.960 C 1825.961,2264.958 1832.249,2268.232 1831.818,2271.266 C 1831.418,2274.078 1827.422,2274.717 1824.250,2272.476" stroke="#000000" fill="#000000" stroke-width="1" />
  <path id="205" d="M 1801.171,2321.325 C 1801.389,2320.175 1802.562,2319.380 1804.346,2319.175 C 1806.631,2318.913 1807.109,2319.201 1806.829,2320.675 C 1806.611,2321.825 1805.438,2322.620 1803.654,2322.825 C 1801.369,2323.087 1800.891,2322.799 1801.171,2321.325" stroke="#000000" fill="#000000" stroke-width="1" />
  <path id="205" d="M 1725.667,2458.333 C 1724.288,2456.954 1725.087,2456 1727.622,2456 C 1729.840,2456 1730.053,2456.231 1729,2457.500 C 1727.645,2459.132 1726.702,2459.368 1725.667,2458.333" stroke="#000000" fill="#000000" stroke-width="1" />
  <path id="205" d="M 1855.548,2341.078 C 1854.394,2339.211 1856.981,2335.856 1859.318,2336.189 C 1860.896,2336.414 1861.500,2337.192 1861.500,2339 C 1861.500,2340.962 1860.928,2341.566 1858.844,2341.807 C 1857.383,2341.976 1855.900,2341.648 1855.548,2341.078" stroke="#000000" fill="#000000" stroke-width="1" />
  <path id="205" d="M 1870.306,2327.355 C 1869.912,2326.328 1870.556,2325.089 1872.079,2323.940 C 1874.924,2321.794 1875.447,2322.082 1874.629,2325.343 C 1873.879,2328.333 1871.166,2329.595 1870.306,2327.355" stroke="#000000" fill="#000000" stroke-width="1" />
  <path id="205" d="M 1744.401,2197.460 C 1743.696,2194.649 1745.863,2191.496 1749.237,2190.425 C 1751.553,2189.690 1758,2192.855 1758,2194.727 C 1758,2196.335 1756.533,2196.350 1753.997,2194.766 C 1752.272,2193.689 1751.646,2193.943 1749.067,2196.766 C 1747.442,2198.545 1745.871,2200 1745.575,2200 C 1745.279,2200 1744.752,2198.857 1744.401,2197.460" stroke="#000000" fill="#000000" stroke-width="1" />
  <path id="205" d="M 1860.465,2191.943 C 1860.106,2191.362 1860.058,2189.899 1860.358,2188.693 C 1860.811,2186.874 1860.216,2186.208 1856.877,2184.792 C 1853.621,2183.411 1852.912,2182.646 1853.175,2180.792 C 1853.438,2178.937 1854.215,2178.441 1857.250,2178.190 C 1857.250,2178.190 1861,2177.879 1861,2177.879 C 1861,2177.879 1861,2181.881 1861,2181.881 C 1861,2184.082 1861.450,2186.160 1862,2186.500 C 1863.268,2187.284 1863.320,2193 1862.059,2193 C 1861.542,2193 1860.824,2192.524 1860.465,2191.943" stroke="#000000" fill="#000000" stroke-width="1" />
  <path id="205" d="M 1782.839,2278.250 C 1783.926,2276.738 1786.418,2273.700 1788.377,2271.500 C 1791.287,2268.232 1792.118,2267.769 1792.914,2268.968 C 1793.649,2270.075 1792.735,2271.707 1789.194,2275.610 C 1786.612,2278.456 1783.682,2280.833 1782.682,2280.892 C 1780.967,2280.994 1780.975,2280.844 1782.839,2278.250" stroke="#000000" fill="#000000" stroke-width="1" />
  <path id="205" d="M 1800.040,2384.862 C 1801.750,2378.900 1806.353,2375.423 1810.467,2376.987 C 1813.040,2377.966 1813.049,2378.006 1811.412,2381.238 C 1808.663,2386.665 1806.985,2388 1802.915,2388 C 1799.159,2388 1799.145,2387.984 1800.040,2384.862" stroke="#000000" fill="#000000" stroke-width="1" />
  <path id="205" d="M 1795,2288.582 C 1795,2286.103 1796.169,2284 1797.548,2284 C 1799.426,2284 1800.239,2285.672 1799.497,2288.009 C 1798.780,2290.269 1795,2290.750 1795,2288.582" stroke="#000000" fill="#000000" stroke-width="1" />
  <path id="205" d="M 1855.667,2218.333 C 1855.300,2217.966 1855,2216.362 1855,2214.767 C 1855,2212.194 1855.309,2211.903 1857.750,2212.184 C 1860.042,2212.448 1860.552,2213.042 1860.813,2215.750 C 1861.088,2218.600 1860.832,2219 1858.730,2219 C 1857.412,2219 1856.034,2218.700 1855.667,2218.333" stroke="#000000" fill="#000000" stroke-width="1" />
  <path id="205" d="M 1495,2387.607 C 1495,2386.202 1497.876,2384.542 1498.767,2385.433 C 1499.031,2385.697 1498.981,2386.608 1498.655,2387.457 C 1497.917,2389.380 1495,2389.499 1495,2387.607" stroke="#000000" fill="#000000" stroke-width="1" />
  <path id="205" d="M 1867.670,2166.583 C 1866.989,2164.808 1869.958,2163.558 1871.409,2165.009 C 1872.175,2165.775 1872.055,2166.354 1870.992,2167.026 C 1868.946,2168.320 1868.304,2168.235 1867.670,2166.583" stroke="#000000" fill="#000000" stroke-width="1" />
  <path id="205" d="M 1761.757,2301.677 C 1762.049,2300.480 1762.724,2298.943 1764.891,2293.058 C 1766.316,2292.296 1767.252,2292.670 1769.225,2294.793 C 1772.650,2298.477 1775.420,2302.971 1774.365,2303.131 C 1773.889,2303.203 1770.738,2303.395 1767.363,2303.558 C 1761.500,2303.841 1761.249,2303.757 1761.757,2301.677" stroke="#000000" fill="#000000" stroke-width="1" />
  <path id="205" d="M 1868.323,2304.399 C 1867.701,2302.779 1869.459,2301.043 1871.750,2301.015 C 1873.126,2300.998 1873.317,2302.009 1872.393,2304.418 C 1871.607,2306.468 1869.112,2306.456 1868.323,2304.399" stroke="#000000" fill="#000000" stroke-width="1" />
  <path id="205" d="M 1905.714,2181.380 C 1904.297,2179.963 1905.062,2178.872 1908.468,2177.449 C 1913.756,2175.240 1915.186,2175.533 1914.816,2178.750 C 1914.536,2181.184 1914.037,2181.534 1910.464,2181.797 C 1908.244,2181.960 1906.107,2181.773 1905.714,2181.380" stroke="#000000" fill="#000000" stroke-width="1" />
  <path id="205" d="M 1650,2445.227 C 1650,2444.155 1651.115,2442.813 1652.547,2442.160 C 1656.046,2440.566 1656.175,2440.629 1655.816,2443.750 C 1655.567,2445.910 1654.910,2446.567 1652.750,2446.816 C 1650.601,2447.063 1650,2446.716 1650,2445.227" stroke="#000000" fill="#000000" stroke-width="1" />
  <path id="205" d="M 2034.323,2278.399 C 2033.689,2276.748 2035.471,2275.042 2037.857,2275.015 C 2038.686,2275.005 2038.978,2275.616 2038.607,2276.582 C 2038.273,2277.452 2038,2278.577 2038,2279.082 C 2038,2280.651 2034.971,2280.088 2034.323,2278.399" stroke="#000000" fill="#000000" stroke-width="1" />
  <path id="205" d="M 1455.406,2452.848 C 1455.015,2452.214 1455.518,2451.095 1456.524,2450.359 C 1458.770,2448.716 1459.389,2449.200 1458.524,2451.925 C 1457.794,2454.226 1456.495,2454.609 1455.406,2452.848" stroke="#000000" fill="#000000" stroke-width="1" />
  <path id="205" d="M 1948.595,2359.833 C 1946.092,2356.260 1946.597,2355 1950.531,2355 C 1954.409,2355 1956.044,2357.119 1954.302,2359.886 C 1952.738,2362.370 1950.357,2362.348 1948.595,2359.833" stroke="#000000" fill="#000000" stroke-width="1" />
  <path id="205" d="M 1799.721,2191.041 C 1799.426,2189.912 1799.823,2188.898 1800.692,2188.565 C 1802.695,2187.796 1802.710,2187.801 1803.356,2189.485 C 1803.685,2190.342 1803.143,2191.388 1802.073,2191.961 C 1800.604,2192.747 1800.117,2192.556 1799.721,2191.041" stroke="#000000" fill="#000000" stroke-width="1" />
  <path id="205" d="M 1818,2296.072 C 1818,2295.561 1818.767,2294.376 1819.705,2293.438 C 1821.534,2291.609 1822.660,2292.837 1821.626,2295.533 C 1821.013,2297.131 1818,2297.579 1818,2296.072" stroke="#000000" fill="#000000" stroke-width="1" />
  <path id="205" d="M 1937.357,2199.487 C 1936.612,2197.545 1938.714,2195 1941.063,2195 C 1943.393,2195 1944.297,2196.488 1943.497,2199.009 C 1942.738,2201.399 1938.226,2201.751 1937.357,2199.487" stroke="#000000" fill="#000000" stroke-width="1" />
  <path id="205" d="M 1749.856,2186.522 C 1749.543,2186.209 1749.504,2184.814 1749.770,2183.422 C 1750.161,2181.374 1750.754,2180.950 1752.877,2181.196 C 1754.927,2181.434 1755.500,2182.046 1755.500,2184 C 1755.500,2185.932 1754.924,2186.567 1752.963,2186.796 C 1751.567,2186.959 1750.169,2186.835 1749.856,2186.522" stroke="#000000" fill="#000000" stroke-width="1" />
  <path id="205" d="M 2053.131,2353.388 C 2050.769,2348.204 2057.400,2345.629 2060.587,2350.492 C 2062.858,2353.958 2061.785,2356 2057.692,2356 C 2055.028,2356 2054.071,2355.452 2053.131,2353.388" stroke="#000000" fill="#000000" stroke-width="1" />
  <path id="205" d="M 1780.644,2424.515 C 1780.314,2423.656 1780.859,2422.610 1781.937,2422.033 C 1783.365,2421.269 1783.948,2421.421 1784.434,2422.688 C 1784.783,2423.596 1784.490,2424.707 1783.784,2425.155 C 1781.938,2426.326 1781.288,2426.193 1780.644,2424.515" stroke="#000000" fill="#000000" stroke-width="1" />
  <path id="205" d="M 1773,2356.129 C 1773,2355.100 1774.741,2352.295 1776.869,2349.897 C 1780.251,2346.086 1780.943,2345.708 1782.369,2346.891 C 1784.670,2348.801 1784.408,2350.595 1781.250,2354.553 C 1778.088,2358.516 1773,2359.488 1773,2356.129" stroke="#000000" fill="#000000" stroke-width="1" />
  <path id="205" d="M 1744.813,2260.750 C 1744.512,2257.625 1744.314,2257.489 1739.665,2257.192 C 1735.816,2256.947 1734.950,2256.573 1735.415,2255.360 C 1735.737,2254.522 1736,2253.491 1736,2253.068 C 1736,2252.645 1738.320,2252.665 1741.154,2253.113 C 1747.008,2254.039 1748,2253.711 1748,2250.854 C 1748,2249.513 1746.970,2248.437 1744.961,2247.679 C 1742.770,2246.852 1742.003,2245.972 1742.211,2244.526 C 1742.824,2240.271 1749.518,2241.429 1752.664,2246.335 C 1752.664,2246.335 1754.828,2249.710 1754.828,2249.710 C 1754.828,2249.710 1751.692,2252.847 1751.692,2252.847 C 1748.758,2255.781 1748.634,2256.190 1749.766,2259.190 C 1750.721,2261.719 1750.714,2262.563 1749.738,2263.183 C 1746.966,2264.944 1745.130,2264.037 1744.813,2260.750" stroke="#000000" fill="#000000" stroke-width="1" />
  <path id="205" d="M 1837.555,2276.265 C 1836.874,2274.514 1840.755,2272.702 1843.872,2273.316 C 1845.317,2273.601 1848.750,2273.255 1851.500,2272.546 C 1855.938,2271.402 1856.570,2271.440 1857.124,2272.879 C 1857.467,2273.771 1857.346,2275.274 1856.855,2276.220 C 1856.097,2277.679 1854.602,2277.906 1846.998,2277.720 C 1840.987,2277.573 1837.877,2277.093 1837.555,2276.265" stroke="#000000" fill="#000000" stroke-width="1" />
  <path id="205" d="M 1737,2285.500 C 1735.947,2284.231 1736.160,2284 1738.378,2284 C 1740.042,2284 1741,2284.548 1741,2285.500 C 1741,2286.325 1740.380,2287 1739.622,2287 C 1738.864,2287 1737.685,2286.325 1737,2285.500" stroke="#000000" fill="#000000" stroke-width="1" />
  <path id="205" d="M 1916,2197.434 C 1916,2196.023 1915.551,2194.028 1915.001,2193.001 C 1914.200,2191.504 1914.407,2191.006 1916.049,2190.485 C 1919.074,2189.525 1921,2191.718 1921,2196.123 C 1921,2199.592 1920.737,2200 1918.500,2200 C 1916.483,2200 1916,2199.504 1916,2197.434" stroke="#000000" fill="#000000" stroke-width="1" />
  <path id="205" d="M 1600.564,2493.250 C 1601.625,2488.407 1601.899,2488 1604.076,2488 C 1605.621,2488 1606.045,2488.442 1605.603,2489.593 C 1605.267,2490.469 1604.719,2492.269 1604.387,2493.593 C 1604.012,2495.085 1603.057,2496 1601.873,2496 C 1600.309,2496 1600.071,2495.501 1600.564,2493.250" stroke="#000000" fill="#000000" stroke-width="1" />
  <path id="205" d="M 2062,2284.082 C 2062,2281.602 2063.457,2280 2065.714,2280 C 2067.583,2280 2068.061,2280.400 2067.607,2281.582 C 2067.273,2282.452 2067,2283.577 2067,2284.082 C 2067,2284.587 2065.875,2285 2064.500,2285 C 2063.125,2285 2062,2284.587 2062,2284.082" stroke="#000000" fill="#000000" stroke-width="1" />
  <path id="205" d="M 1891.693,2367.317 C 1888.969,2366.585 1890.099,2363.751 1893.476,2362.848 C 1896.842,2361.948 1898.354,2362.917 1897.834,2365.644 C 1897.475,2367.525 1894.986,2368.202 1891.693,2367.317" stroke="#000000" fill="#000000" stroke-width="1" />
  <path id="205" d="M 1761.662,2405.399 C 1757.371,2398.063 1757.337,2395.078 1761.523,2393.171 C 1765.980,2391.140 1769.659,2391.767 1773.715,2395.248 C 1775.797,2397.035 1777.831,2398.947 1778.235,2399.498 C 1779.683,2401.472 1778.960,2403.793 1776.723,2404.355 C 1775.471,2404.669 1772.587,2406.518 1770.314,2408.463 C 1768.041,2410.408 1766.029,2411.991 1765.841,2411.981 C 1765.653,2411.970 1763.773,2409.008 1761.662,2405.399" stroke="#000000" fill="#000000" stroke-width="1" />
  <path id="205" d="M 1518.515,2463.750 C 1520.308,2457.541 1526.138,2453.960 1526.807,2458.656 C 1527.019,2460.143 1526.060,2461.616 1523.713,2463.406 C 1519.452,2466.656 1517.641,2466.776 1518.515,2463.750" stroke="#000000" fill="#000000" stroke-width="1" />
  <path id="205" d="M 1823,2475.082 C 1823,2472.033 1824.090,2470 1825.724,2470 C 1826.802,2470 1827.060,2470.644 1826.630,2472.250 C 1826.298,2473.488 1826.021,2475.062 1826.014,2475.750 C 1826.006,2476.438 1825.325,2477 1824.500,2477 C 1823.675,2477 1823,2476.137 1823,2475.082" stroke="#000000" fill="#000000" stroke-width="1" />
  <path id="205" d="M 1777.646,2467.756 C 1776.991,2465.252 1779.169,2462.368 1780.904,2463.441 C 1782.357,2464.339 1782.300,2467.300 1780.800,2468.800 C 1779.061,2470.539 1778.309,2470.289 1777.646,2467.756" stroke="#000000" fill="#000000" stroke-width="1" />
  <path id="205" d="M 1824.721,2198.042 C 1824.428,2196.920 1824.632,2195.728 1825.175,2195.392 C 1825.718,2195.057 1825.905,2193.757 1825.591,2192.505 C 1824.971,2190.035 1827.187,2187.380 1828.956,2188.473 C 1831.251,2189.892 1829.212,2198.778 1826.377,2199.712 C 1825.760,2199.915 1825.014,2199.164 1824.721,2198.042" stroke="#000000" fill="#000000" stroke-width="1" />
  <path id="205" d="M 1681.492,2408.988 C 1680.692,2407.693 1682.781,2404 1684.313,2404 C 1684.996,2404 1686.560,2404.704 1687.788,2405.564 C 1689.016,2406.424 1690.863,2406.861 1691.892,2406.534 C 1693.698,2405.961 1695.776,2408.465 1694.206,2409.322 C 1692.676,2410.157 1682.042,2409.878 1681.492,2408.988" stroke="#000000" fill="#000000" stroke-width="1" />
  <path id="205" d="M 1592.635,2582.250 C 1593.689,2577.944 1596.411,2576.641 1597.294,2580.018 C 1597.871,2582.223 1595.706,2585 1593.410,2585 C 1592.334,2585 1592.135,2584.293 1592.635,2582.250" stroke="#000000" fill="#000000" stroke-width="1" />
  <path id="205" d="M 1821.658,2440.816 C 1820.273,2437.537 1820.303,2437.459 1824.379,2433.793 C 1826.646,2431.754 1829.512,2430.066 1830.750,2430.043 C 1833.351,2429.994 1833.656,2431.211 1831.493,2433.006 C 1830.664,2433.694 1829.381,2436.336 1828.643,2438.878 C 1826.895,2444.897 1823.751,2445.770 1821.658,2440.816" stroke="#000000" fill="#000000" stroke-width="1" />
  <path id="205" d="M 1809.190,2255.250 C 1809.460,2251.994 1809.863,2251.459 1812.250,2251.184 C 1814.684,2250.904 1815,2251.197 1815,2253.734 C 1815,2257.036 1813.411,2259 1810.740,2259 C 1809.202,2259 1808.933,2258.351 1809.190,2255.250" stroke="#000000" fill="#000000" stroke-width="1" />
  <path id="205" d="M 1787.250,2105.338 C 1785.551,2104.653 1785.671,2101.518 1787.452,2100.040 C 1790.960,2097.129 1794.700,2101.158 1791.479,2104.379 C 1789.790,2106.068 1789.322,2106.174 1787.250,2105.338" stroke="#000000" fill="#000000" stroke-width="1" />
  <path id="205" d="M 1669,2414.142 C 1669,2412.215 1671.273,2410.607 1672.402,2411.736 C 1673.492,2412.826 1673.024,2413.917 1671,2415 C 1669.321,2415.898 1669,2415.760 1669,2414.142" stroke="#000000" fill="#000000" stroke-width="1" />
  <path id="205" d="M 1408.178,2278.308 C 1408.478,2275.695 1408.812,2275.500 1413,2275.500 C 1417.133,2275.500 1417.500,2275.704 1417.500,2278 C 1417.500,2280.279 1417.073,2280.528 1412.678,2280.808 C 1407.923,2281.111 1407.860,2281.077 1408.178,2278.308" stroke="#000000" fill="#000000" stroke-width="1" />
  <path id="205" d="M 1730.667,2493.333 C 1730.300,2492.966 1730,2491.616 1730,2490.333 C 1730,2488.511 1730.548,2488 1732.500,2488 C 1735.019,2488 1735.583,2489.317 1734.393,2492.418 C 1733.769,2494.043 1731.849,2494.515 1730.667,2493.333" stroke="#000000" fill="#000000" stroke-width="1" />
  <path id="205" d="M 1873.935,2214.837 C 1874.323,2211.999 1875.295,2210.117 1877.044,2208.813 C 1877.044,2208.813 1879.588,2206.917 1879.588,2206.917 C 1879.588,2206.917 1883.689,2210.819 1883.689,2210.819 C 1889.211,2216.071 1888.500,2216.935 1877.435,2218.419 C 1877.435,2218.419 1873.370,2218.964 1873.370,2218.964 C 1873.370,2218.964 1873.935,2214.837 1873.935,2214.837" stroke="#000000" fill="#000000" stroke-width="1" />
  <path id="205" d="M 1770.736,2181.646 C 1771.013,2179.184 1770.703,2176.313 1770.021,2175.039 C 1768.097,2171.444 1770.285,2170.377 1773.332,2173.423 C 1774.749,2174.841 1776.380,2176 1776.955,2176 C 1776.819,2177.808 1773.343,2186.029 1772.748,2186 C 1770.387,2186 1770.273,2185.755 1770.736,2181.646" stroke="#000000" fill="#000000" stroke-width="1" />
  <path id="205" d="M 1710,2405.117 C 1710,2404.075 1710.893,2403 1712,2402.710 C 1713.591,2402.294 1714,2402.680 1714,2404.594 C 1714,2406.334 1713.446,2407 1712,2407 C 1710.708,2407 1710,2406.334 1710,2405.117" stroke="#000000" fill="#000000" stroke-width="1" />
  <path id="205" d="M 1889.015,2112.320 C 1889.039,2109.461 1890.622,2107.641 1892.469,2108.350 C 1894.958,2109.305 1894.040,2113.424 1891.250,2113.820 C 1889.620,2114.051 1889.004,2113.638 1889.015,2112.320" stroke="#000000" fill="#000000" stroke-width="1" />
  <path id="205" d="M 1763.015,2198.250 C 1763.023,2197.288 1763.361,2195.985 1763.765,2195.356 C 1764.603,2194.051 1775.334,2189.525 1780.038,2188.492 C 1782.956,2187.851 1783.100,2187.945 1782.095,2189.823 C 1778.532,2196.481 1762.970,2203.354 1763.015,2198.250" stroke="#000000" fill="#000000" stroke-width="1" />
  <path id="205" d="M 1759.500,2240 C 1758.560,2238.480 1759.875,2237 1762.166,2237 C 1763.623,2237 1764.039,2237.457 1763.607,2238.582 C 1763.273,2239.452 1763,2240.352 1763,2240.582 C 1763,2241.444 1760.094,2240.960 1759.500,2240" stroke="#000000" fill="#000000" stroke-width="1" />
  <path id="205" d="M 1967.667,2258.333 C 1967.300,2257.966 1967,2256.894 1967,2255.950 C 1961.459,2254.966 1965.139,2244.494 1967,2250.427 C 1967,2253.572 1967.300,2254 1969.500,2254 C 1971.500,2254 1972,2254.500 1972,2256.500 C 1972,2258.258 1971.456,2259 1970.167,2259 C 1969.159,2259 1968.034,2258.700 1967.667,2258.333" stroke="#000000" fill="#000000" stroke-width="1" />
  <path id="205" d="M 1877.351,2360.473 C 1876.692,2358.756 1878.410,2357.043 1880.820,2357.015 C 1882.804,2356.992 1881.814,2361.420 1879.747,2361.814 C 1878.783,2361.998 1877.704,2361.394 1877.351,2360.473" stroke="#000000" fill="#000000" stroke-width="1" />
  <path id="205" d="M 1775,2480.500 C 1775,2479.567 1775.944,2479 1777.500,2479 C 1779.056,2479 1780,2479.567 1780,2480.500 C 1780,2481.433 1779.056,2482 1777.500,2482 C 1775.944,2482 1775,2481.433 1775,2480.500" stroke="#000000" fill="#000000" stroke-width="1" />
  <path id="205" d="M 1654.188,2431.261 C 1654.690,2428.654 1658,2428.364 1658,2430.927 C 1658,2432.358 1657.358,2433 1655.927,2433 C 1654.496,2433 1653.957,2432.461 1654.188,2431.261" stroke="#000000" fill="#000000" stroke-width="1" />
  <path id="205" d="M 1986.667,2259.333 C 1985.557,2258.223 1985.910,2257.248 1987.670,2256.573 C 1989.374,2255.919 1991.267,2257.759 1990.375,2259.202 C 1989.776,2260.171 1987.583,2260.249 1986.667,2259.333" stroke="#000000" fill="#000000" stroke-width="1" />
  <path id="205" d="M 1844,2396.066 C 1844,2394.426 1844.633,2394 1847.073,2394 C 1849.460,2394 1850.073,2394.391 1849.815,2395.750 C 1849.615,2396.805 1848.394,2397.625 1846.741,2397.816 C 1844.535,2398.071 1844,2397.729 1844,2396.066" stroke="#000000" fill="#000000" stroke-width="1" />
  <path id="205" d="M 1942,2343.500 C 1942,2340.726 1944.063,2340.166 1945.942,2342.430 C 1946.890,2343.572 1946.726,2344.076 1945.130,2344.930 C 1942.298,2346.446 1942,2346.309 1942,2343.500" stroke="#000000" fill="#000000" stroke-width="1" />
  <path id="205" d="M 1845,2491.123 C 1845,2485.973 1851.127,2483.902 1851.827,2488.815 C 1852.252,2491.800 1850.364,2494 1847.378,2494 C 1845.425,2494 1845,2493.486 1845,2491.123" stroke="#000000" fill="#000000" stroke-width="1" />
  <path id="205" d="M 1677.750,2450.635 C 1675.483,2448.879 1675.421,2443.436 1677.657,2442.578 C 1680.299,2441.564 1687.193,2446.630 1686.812,2449.305 C 1686.567,2451.028 1685.748,2451.553 1683,2451.746 C 1681.075,2451.881 1678.713,2451.381 1677.750,2450.635" stroke="#000000" fill="#000000" stroke-width="1" />
  <path id="205" d="M 1746.667,2152.333 C 1746.300,2151.966 1746,2150.841 1746,2149.833 C 1746,2148.463 1746.758,2148 1749,2148 C 1752.475,2148 1753.104,2150.339 1750.066,2151.965 C 1747.788,2153.184 1747.544,2153.210 1746.667,2152.333" stroke="#000000" fill="#000000" stroke-width="1" />
  <path id="205" d="M 1720.583,2217.357 C 1719.778,2215.259 1720.127,2214.955 1723.627,2214.705 C 1725.919,2214.541 1726.562,2214.954 1726.818,2216.750 C 1727.089,2218.649 1726.678,2219 1724.177,2219 C 1722.351,2219 1720.972,2218.369 1720.583,2217.357" stroke="#000000" fill="#000000" stroke-width="1" />
  <path id="205" d="M 1944.188,2227.261 C 1944.603,2225.107 1948,2224.268 1948,2226.320 C 1948,2227.127 1947.288,2228.059 1946.418,2228.393 C 1944.070,2229.294 1943.821,2229.167 1944.188,2227.261" stroke="#000000" fill="#000000" stroke-width="1" />
  <path id="205" d="M 1813,2103.607 C 1813,2099.257 1815.643,2097.931 1817.032,2101.584 C 1818.592,2105.688 1818.221,2107 1815.500,2107 C 1813.325,2107 1813,2106.560 1813,2103.607" stroke="#000000" fill="#000000" stroke-width="1" />
  <path id="205" d="M 1770.734,2321.401 C 1770.330,2320.997 1770,2319.643 1770,2318.392 C 1770,2315.253 1768.360,2314.534 1765.491,2316.414 C 1764.160,2317.286 1761.929,2318 1758,2312 C 1758,2312 1768.566,2312 1768.566,2312 C 1774.377,2312 1780.002,2312.466 1781.066,2313.035 C 1783.670,2314.429 1783.511,2317.625 1780.750,2319.403 C 1778.018,2321.163 1771.747,2322.414 1770.734,2321.401" stroke="#000000" fill="#000000" stroke-width="1" />
  <path id="205" d="M 1829,2260 C 1829,2258.889 1829.667,2258 1830.500,2258 C 1831.333,2258 1832,2258.889 1832,2260 C 1832,2261.111 1831.333,2262 1830.500,2262 C 1829.667,2262 1829,2261.111 1829,2260" stroke="#000000" fill="#000000" stroke-width="1" />
  <path id="205" d="M 1801,2367.500 C 1801,2366.667 1801.889,2366 1803,2366 C 1804.111,2366 1805,2366.667 1805,2367.500 C 1805,2368.333 1804.111,2369 1803,2369 C 1801.889,2369 1801,2368.333 1801,2367.500" stroke="#000000" fill="#000000" stroke-width="1" />
  <path id="205" d="M 1458.409,2316.853 C 1458.016,2316.217 1458.459,2315.139 1459.392,2314.456 C 1461.345,2313.028 1468.003,2314.547 1467.995,2316.418 C 1467.988,2317.909 1459.305,2318.303 1458.409,2316.853" stroke="#000000" fill="#000000" stroke-width="1" />
  <path id="205" d="M 2000.384,2414.558 C 1999.139,2411.313 2000.435,2409.500 2004,2409.500 C 2007.801,2409.500 2009.187,2411.864 2006.960,2414.548 C 2005.407,2416.420 2001.101,2416.426 2000.384,2414.558" stroke="#000000" fill="#000000" stroke-width="1" />
  <path id="205" d="M 1878.073,2324.365 C 1874.205,2319.448 1876.118,2314.535 1881.650,2315.178 C 1883.648,2315.410 1884.587,2316.197 1885.014,2318 C 1885.480,2319.967 1886.234,2320.500 1889.196,2324.252 C 1887.929,2324.116 1885.589,2324.678 1883.996,2325.502 C 1880.293,2327.417 1880.506,2327.458 1878.073,2324.365" stroke="#000000" fill="#000000" stroke-width="1" />
  <path id="205" d="M 1860.638,2060.500 C 1860.955,2059.675 1861.793,2059 1862.500,2059 C 1863.207,2059 1864.045,2059.675 1864.362,2060.500 C 1864.777,2061.581 1864.256,2062 1862.500,2062 C 1860.744,2062 1860.223,2061.581 1860.638,2060.500" stroke="#000000" fill="#000000" stroke-width="1" />
  <path id="205" d="M 1975.500,2202 C 1973.935,2199.467 1979.184,2197.311 1981.149,2199.679 C 1982.123,2200.853 1982.080,2201.337 1980.936,2202.061 C 1979.024,2203.271 1976.266,2203.240 1975.500,2202" stroke="#000000" fill="#000000" stroke-width="1" />
  <path id="205" d="M 1869.073,2188.365 C 1867.376,2186.208 1866.235,2182.186 1867.250,2181.939 C 1867.387,2181.906 1870.312,2181.636 1873.750,2181.340 C 1879.914,2180.810 1880,2180.837 1880,2183.336 C 1880,2184.730 1879.561,2187.024 1879.025,2188.435 C 1877.628,2192.109 1871.987,2192.069 1869.073,2188.365" stroke="#000000" fill="#000000" stroke-width="1" />
  <path id="205" d="M 1768.869,2340.490 C 1764.950,2338.360 1764.497,2336.048 1767.429,2333.116 C 1770.025,2330.520 1772.242,2330.799 1770.046,2333.445 C 1769.038,2334.660 1769.197,2335.435 1770.903,2337.604 C 1774.350,2341.986 1773.595,2343.058 1768.869,2340.490" stroke="#000000" fill="#000000" stroke-width="1" />
  <path id="205" d="M 1634.184,2435.259 C 1634.547,2432.114 1637.500,2430.971 1638.208,2433.702 C 1638.915,2436.428 1638.052,2438 1635.850,2438 C 1634.278,2438 1633.933,2437.432 1634.184,2435.259" stroke="#000000" fill="#000000" stroke-width="1" />
  <path id="205" d="M 1894.495,2044.991 C 1893.269,2043.007 1895.084,2040 1897.508,2040 C 1900.363,2040 1901.349,2041.323 1900.497,2044.009 C 1899.825,2046.125 1895.621,2046.813 1894.495,2044.991" stroke="#000000" fill="#000000" stroke-width="1" />
  <path id="205" d="M 1793.500,2382.467 C 1792.950,2382.300 1790.812,2381.882 1788.750,2381.537 C 1785.605,2381.011 1785,2380.513 1785,2378.455 C 1785,2375.831 1786.830,2375.230 1788.807,2377.207 C 1789.750,2378.150 1790.361,2378.068 1791.597,2376.832 C 1793.041,2375.388 1793.040,2374.978 1791.584,2372.163 C 1790.055,2369.205 1790.079,2369.028 1792.177,2367.905 C 1794.050,2366.902 1794.637,2367.070 1796.249,2369.060 C 1797.370,2370.444 1797.909,2372.219 1797.580,2373.443 C 1797.276,2374.575 1797.021,2376.427 1797.014,2377.559 C 1796.998,2379.995 1794.920,2382.897 1793.500,2382.467" stroke="#000000" fill="#000000" stroke-width="1" />
  <path id="205" d="M 1599.323,2543.399 C 1598.689,2541.748 1600.471,2540.042 1602.857,2540.015 C 1603.686,2540.005 1603.978,2540.616 1603.607,2541.582 C 1603.273,2542.452 1603,2543.577 1603,2544.082 C 1603,2545.651 1599.971,2545.088 1599.323,2543.399" stroke="#000000" fill="#000000" stroke-width="1" />
  <path id="205" d="M 1849.162,2112.122 C 1847.073,2110.798 1848.141,2106.551 1850.653,2106.193 C 1852.832,2105.882 1856,2109.158 1856,2111.722 C 1856,2113.162 1851.242,2113.440 1849.162,2112.122" stroke="#000000" fill="#000000" stroke-width="1" />
  <path id="205" d="M 1843,2317.500 C 1843,2315.944 1843.567,2315 1844.500,2315 C 1845.433,2315 1846,2315.944 1846,2317.500 C 1846,2319.056 1845.433,2320 1844.500,2320 C 1843.567,2320 1843,2319.056 1843,2317.500" stroke="#000000" fill="#000000" stroke-width="1" />
  <path id="205" d="M 1808.465,2447.943 C 1807.449,2446.300 1808.876,2442 1810.437,2442 C 1814.612,2442 1816.443,2445.157 1813.800,2447.800 C 1812.317,2449.283 1809.342,2449.363 1808.465,2447.943" stroke="#000000" fill="#000000" stroke-width="1" />
  <path id="205" d="M 1665.184,2402.250 C 1665.459,2399.863 1665.994,2399.459 1669.250,2399.190 C 1672.834,2398.893 1673,2399.015 1673,2401.940 C 1673,2404.852 1672.803,2405 1668.934,2405 C 1665.088,2405 1664.885,2404.851 1665.184,2402.250" stroke="#000000" fill="#000000" stroke-width="1" />
  <path id="205" d="M 1793.345,2351.457 C 1792.648,2349.642 1792.794,2349.465 1795.750,2348.557 C 1798.260,2347.786 1798.884,2349.715 1796.800,2351.800 C 1795.179,2353.421 1794.056,2353.310 1793.345,2351.457" stroke="#000000" fill="#000000" stroke-width="1" />
  <path id="205" d="M 1760,2175.427 C 1760,2172.563 1760.348,2171.920 1761.750,2172.187 C 1763.888,2172.594 1764.687,2176.950 1762.838,2178.122 C 1760.519,2179.592 1760,2179.100 1760,2175.427" stroke="#000000" fill="#000000" stroke-width="1" />
  <path id="205" d="M 1579,2510.500 C 1579,2509.567 1579.944,2509 1581.500,2509 C 1583.056,2509 1584,2509.567 1584,2510.500 C 1584,2511.433 1583.056,2512 1581.500,2512 C 1579.944,2512 1579,2511.433 1579,2510.500" stroke="#000000" fill="#000000" stroke-width="1" />
  <path id="205" d="M 1501.177,2494.357 C 1501.548,2492.471 1504.595,2490.262 1505.533,2491.200 C 1505.879,2491.546 1505.660,2492.767 1505.046,2493.914 C 1503.717,2496.397 1500.708,2496.742 1501.177,2494.357" stroke="#000000" fill="#000000" stroke-width="1" />
  <path id="205" d="M 1916.184,2224.259 C 1916.574,2220.882 1918.907,2220.294 1921.996,2222.796 C 1924.981,2225.213 1923.867,2227 1919.375,2227 C 1916.141,2227 1915.892,2226.787 1916.184,2224.259" stroke="#000000" fill="#000000" stroke-width="1" />
  <path id="205" d="M 1807,2219.500 C 1807,2217.944 1807.567,2217 1808.500,2217 C 1809.433,2217 1810,2217.944 1810,2219.500 C 1810,2221.056 1809.433,2222 1808.500,2222 C 1807.567,2222 1807,2221.056 1807,2219.500" stroke="#000000" fill="#000000" stroke-width="1" />
  <path id="205" d="M 1514,2444.500 C 1514,2442.744 1514.420,2442.223 1515.500,2442.638 C 1516.325,2442.954 1517,2443.793 1517,2444.500 C 1517,2445.207 1516.325,2446.046 1515.500,2446.362 C 1514.420,2446.777 1514,2446.256 1514,2444.500" stroke="#000000" fill="#000000" stroke-width="1" />
  <path id="205" d="M 1877.750,2299.920 C 1876.183,2299.007 1873,2294.035 1873,2292.499 C 1873,2291.594 1879.648,2289 1881.968,2289 C 1883.729,2289 1884,2289.641 1884,2293.800 C 1884,2300.251 1881.881,2302.326 1877.750,2299.920" stroke="#000000" fill="#000000" stroke-width="1" />
  <path id="205" d="M 1807,2243.406 C 1807,2242.529 1806.079,2241.572 1804.952,2241.277 C 1803.745,2240.961 1803.031,2240.076 1803.215,2239.121 C 1803.658,2236.821 1806.399,2237.107 1806.848,2239.500 C 1807.054,2240.600 1807.847,2241.860 1808.611,2242.300 C 1810.452,2243.360 1810.385,2245 1808.500,2245 C 1807.675,2245 1807,2244.282 1807,2243.406" stroke="#000000" fill="#000000" stroke-width="1" />
  <path id="205" d="M 1666.189,2489.924 C 1666.563,2484.855 1669.052,2482.623 1671.548,2485.119 C 1674.114,2487.685 1672.197,2493.405 1668.631,2493.822 C 1665.970,2494.134 1665.888,2494.003 1666.189,2489.924" stroke="#000000" fill="#000000" stroke-width="1" />
  <path id="205" d="M 1824.533,2120.053 C 1823.654,2118.630 1824.774,2117 1826.632,2117 C 1827.508,2117 1828.010,2117.702 1827.823,2118.667 C 1827.433,2120.675 1825.438,2121.517 1824.533,2120.053" stroke="#000000" fill="#000000" stroke-width="1" />
  <path id="205" d="M 1752.503,2391.009 C 1751.690,2388.448 1752.613,2387 1755.059,2387 C 1757.258,2387 1757.705,2389.895 1755.800,2391.800 C 1754.097,2393.503 1753.228,2393.294 1752.503,2391.009" stroke="#000000" fill="#000000" stroke-width="1" />
  <path id="205" d="M 1732,2407.200 C 1732,2403.799 1733.626,2402 1736.700,2402 C 1738.466,2402 1739,2402.561 1739,2404.418 C 1739,2408.567 1737.946,2410 1734.893,2410 C 1732.391,2410 1732,2409.621 1732,2407.200" stroke="#000000" fill="#000000" stroke-width="1" />
  <path id="205" d="M 2024,2159.573 C 2024,2158.646 2024.855,2158 2026.083,2158 C 2028.520,2158 2028.176,2160.336 2025.667,2160.823 C 2024.680,2161.014 2024,2160.504 2024,2159.573" stroke="#000000" fill="#000000" stroke-width="1" />
  <path id="205" d="M 1989.365,2152.492 C 1989.714,2151.582 1990,2150.648 1990,2150.418 C 1990,2150.188 1991.383,2150 1993.073,2150 C 1997.583,2150 1996.729,2153.380 1992.107,2153.823 C 1989.308,2154.091 1988.838,2153.864 1989.365,2152.492" stroke="#000000" fill="#000000" stroke-width="1" />
  <path id="205" d="M 1976.184,2313.250 C 1976.433,2311.088 1977.090,2310.432 1979.256,2310.183 C 1981.061,2309.975 1982.221,2310.411 1982.618,2311.446 C 1983.461,2313.644 1981.232,2316 1978.311,2316 C 1976.235,2316 1975.915,2315.586 1976.184,2313.250" stroke="#000000" fill="#000000" stroke-width="1" />
  <path id="205" d="M 1815.408,2283.622 C 1815.117,2282.864 1815.272,2280.726 1815.753,2278.872 C 1816.444,2276.204 1817.137,2275.500 1819.064,2275.500 C 1821.092,2275.500 1821.553,2276.055 1821.818,2278.815 C 1821.993,2280.638 1821.601,2282.776 1820.946,2283.565 C 1819.431,2285.390 1816.100,2285.424 1815.408,2283.622" stroke="#000000" fill="#000000" stroke-width="1" />
  <path id="205" d="M 1753.751,2291.038 C 1750.490,2289.213 1750.211,2288 1753.052,2288 C 1754.433,2288 1755.446,2287.019 1756.150,2285 C 1757.361,2281.527 1760.380,2280.973 1761.965,2283.934 C 1763.605,2286.998 1763.140,2288.357 1759.707,2290.538 C 1756.740,2292.423 1756.292,2292.461 1753.751,2291.038" stroke="#000000" fill="#000000" stroke-width="1" />
  <path id="205" d="M 1733,2179.174 C 1733,2177.703 1737.432,2174.136 1741.232,2172.548 C 1746.208,2170.469 1753.589,2170.488 1754.393,2172.582 C 1755.340,2175.051 1755.216,2175.131 1751.522,2174.438 C 1748.689,2173.907 1747.488,2174.253 1745.048,2176.306 C 1743.243,2177.825 1741.292,2178.628 1740.139,2178.326 C 1739.087,2178.051 1737.924,2178.315 1737.554,2178.913 C 1736.772,2180.178 1733,2180.394 1733,2179.174" stroke="#000000" fill="#000000" stroke-width="1" />
  <path id="205" d="M 1579.187,2466.750 C 1579.388,2464.667 1580.039,2463.500 1581,2463.500 C 1582.926,2463.500 1583.598,2468.007 1581.838,2469.122 C 1579.477,2470.619 1578.867,2470.073 1579.187,2466.750" stroke="#000000" fill="#000000" stroke-width="1" />
  <path id="205" d="M 1999.309,2475.364 C 1998.415,2473.034 2000.279,2470.551 2003.186,2470.199 C 2006.253,2469.828 2008.106,2471.881 2007.342,2474.802 C 2006.891,2476.525 2006.028,2477 2003.352,2477 C 2001.113,2477 1999.721,2476.437 1999.309,2475.364" stroke="#000000" fill="#000000" stroke-width="1" />
  <path id="205" d="M 1907.173,2138.341 C 1907.368,2137.329 1908.196,2136.500 1909.014,2136.500 C 1911.158,2136.500 1910.847,2139.406 1908.659,2139.827 C 1907.323,2140.084 1906.916,2139.677 1907.173,2138.341" stroke="#000000" fill="#000000" stroke-width="1" />
  <path id="205" d="M 1830.250,2393.750 C 1830.872,2391.882 1833.663,2391.678 1834.343,2393.451 C 1834.784,2394.600 1834.279,2395 1832.385,2395 C 1830.788,2395 1829.990,2394.532 1830.250,2393.750" stroke="#000000" fill="#000000" stroke-width="1" />
  <path id="205" d="M 1757.600,2205.400 C 1756.549,2202.660 1756.944,2201.852 1759.172,2202.180 C 1762.066,2202.606 1762.597,2204.610 1760.161,2205.914 C 1758.634,2206.731 1758.067,2206.617 1757.600,2205.400" stroke="#000000" fill="#000000" stroke-width="1" />
  <path id="205" d="M 1717.538,2438.250 C 1720.933,2430.114 1724.300,2427.557 1725.228,2432.410 C 1725.573,2434.215 1725.107,2435.085 1723.372,2435.876 C 1722.098,2436.457 1720.769,2438.072 1720.419,2439.466 C 1720.017,2441.069 1719.083,2442 1717.878,2442 C 1716.065,2442 1716.049,2441.819 1717.538,2438.250" stroke="#000000" fill="#000000" stroke-width="1" />
  <path id="205" d="M 2002.177,2175.333 C 2002.664,2172.824 2005,2172.480 2005,2174.917 C 2005,2176.145 2004.355,2177 2003.427,2177 C 2002.496,2177 2001.986,2176.320 2002.177,2175.333" stroke="#000000" fill="#000000" stroke-width="1" />
  <path id="205" d="M 1820.182,2247.500 C 1818.971,2244.843 1819.944,2244.274 1823.418,2245.607 C 1826.083,2246.630 1824.672,2250 1821.579,2250 C 1821.437,2250 1820.808,2248.875 1820.182,2247.500" stroke="#000000" fill="#000000" stroke-width="1" />
  <path id="205" d="M 1814.500,2397 C 1813.684,2395.680 1814.777,2394 1816.452,2394 C 1818.407,2394 1819.130,2396.736 1817.355,2397.417 C 1815.350,2398.187 1815.222,2398.168 1814.500,2397" stroke="#000000" fill="#000000" stroke-width="1" />
  <path id="205" d="M 1739,2377.236 C 1739,2375.004 1743.178,2372.471 1745.432,2373.336 C 1747.750,2374.225 1747.334,2376.769 1744.750,2377.512 C 1743.512,2377.868 1741.713,2378.379 1740.750,2378.647 C 1739.526,2378.988 1739,2378.563 1739,2377.236" stroke="#000000" fill="#000000" stroke-width="1" />
  <path id="205" d="M 1922.250,2321.338 C 1920.490,2320.628 1920.695,2318.331 1922.582,2317.607 C 1923.452,2317.273 1925.525,2317 1929,2321.082 C 1929,2322.040 1924.419,2322.213 1922.250,2321.338" stroke="#000000" fill="#000000" stroke-width="1" />
  <path id="205" d="M 1789,2320.066 C 1789,2317.243 1789.271,2317 1792.414,2317 C 1795.648,2317 1795.788,2317.145 1795.097,2319.750 C 1794.565,2321.755 1793.641,2322.585 1791.684,2322.816 C 1789.287,2323.099 1789,2322.805 1789,2320.066" stroke="#000000" fill="#000000" stroke-width="1" />
  <path id="205" d="M 1766.495,2365.991 C 1765.357,2364.150 1767.097,2361.014 1769.607,2360.384 C 1773.806,2359.330 1778.275,2364.913 1774.418,2366.393 C 1771.937,2367.345 1767.183,2367.104 1766.495,2365.991" stroke="#000000" fill="#000000" stroke-width="1" />
  <path id="205" d="M 1638.607,2476.418 C 1637.649,2473.920 1637.857,2473.211 1640.189,2471.039 C 1643.299,2468.142 1645,2468.461 1645,2471.943 C 1645,2473.851 1644.218,2475.434 1642.777,2476.443 C 1639.989,2478.396 1639.365,2478.392 1638.607,2476.418" stroke="#000000" fill="#000000" stroke-width="1" />
  <path id="205" d="M 1925.431,2361.888 C 1924.642,2360.612 1926.702,2359.037 1929.191,2359.015 C 1931.478,2358.994 1932.585,2361.015 1930.878,2362.096 C 1928.955,2363.314 1926.249,2363.211 1925.431,2361.888" stroke="#000000" fill="#000000" stroke-width="1" />
  <path id="205" d="M 1848.250,2328.333 C 1846.490,2327.629 1846.695,2325.331 1848.582,2324.607 C 1851.340,2323.549 1852.148,2323.939 1851.820,2326.172 C 1851.483,2328.462 1850.324,2329.163 1848.250,2328.333" stroke="#000000" fill="#000000" stroke-width="1" />
  <path id="205" d="M 1786,2304.500 C 1786,2303.548 1786.958,2303 1788.622,2303 C 1790.840,2303 1791.053,2303.231 1790,2304.500 C 1789.315,2305.325 1788.136,2306 1787.378,2306 C 1786.620,2306 1786,2305.325 1786,2304.500" stroke="#000000" fill="#000000" stroke-width="1" />
  <path id="205" d="M 1766.574,2248.333 C 1765.752,2246.191 1767.191,2244.752 1769.333,2245.574 C 1771.444,2246.384 1771.493,2248.597 1769.418,2249.393 C 1767.276,2250.215 1767.300,2250.224 1766.574,2248.333" stroke="#000000" fill="#000000" stroke-width="1" />
  <path id="205" d="M 1752.667,2333.333 C 1751.380,2332.046 1752.019,2328.293 1753.800,2326.681 C 1755.471,2325.169 1763.138,2322 1765.126,2322 C 1765.607,2322 1766,2323.509 1766,2325.354 C 1766,2330.260 1762.199,2334 1757.214,2334 C 1755.079,2334 1753.034,2333.700 1752.667,2333.333" stroke="#000000" fill="#000000" stroke-width="1" />
  <path id="205" d="M 1994,2099.615 C 1994,2097.190 1997.612,2094 2000.358,2094 C 2002.969,2094 2003.065,2097.025 2000.535,2099.555 C 1997.298,2102.792 1994,2102.823 1994,2099.615" stroke="#000000" fill="#000000" stroke-width="1" />
  <path id="205" d="M 1872.444,2276.750 C 1872.804,2274.413 1873.108,2271.038 1873.120,2269.250 C 1873.138,2266.507 1873.511,2266 1875.503,2266 C 1877.864,2266 1882,2270.495 1882,2273.060 C 1882,2275.733 1876.921,2281 1874.344,2281 C 1871.903,2281 1871.819,2280.812 1872.444,2276.750" stroke="#000000" fill="#000000" stroke-width="1" />
  <path id="205" d="M 1836,2169.107 C 1836,2166.410 1838.047,2164.381 1839.402,2165.736 C 1840.619,2166.953 1839.948,2170.806 1838.418,2171.393 C 1836.062,2172.297 1836,2172.238 1836,2169.107" stroke="#000000" fill="#000000" stroke-width="1" />
  <path id="205" d="M 1653.245,2560.750 C 1653.878,2558.827 1658,2558.549 1658,2560.430 C 1658,2561.451 1657.098,2562 1655.417,2562 C 1653.797,2562 1652.987,2561.534 1653.245,2560.750" stroke="#000000" fill="#000000" stroke-width="1" />
  <path id="205" d="M 1806.667,2347.333 C 1805.234,2345.899 1806.133,2345 1809,2345 C 1812.206,2345 1813.030,2346.391 1810.418,2347.393 C 1808.385,2348.173 1807.493,2348.159 1806.667,2347.333" stroke="#000000" fill="#000000" stroke-width="1" />
  <path id="205" d="M 1788.428,2250.028 C 1786.268,2248.393 1783.938,2247.043 1783.250,2247.028 C 1781.733,2246.994 1781.652,2245.520 1783.025,2242.954 C 1783.830,2241.450 1783.464,2240.123 1781.320,2236.769 C 1779.219,2233.482 1778.605,2231.316 1778.650,2227.351 C 1778.731,2220.253 1779.382,2219 1782.990,2219 C 1787.381,2219 1789.068,2222.862 1786.644,2227.363 C 1783.907,2232.445 1787.444,2238.982 1794.658,2242.173 C 1798.339,2243.801 1799,2244.534 1799,2246.990 C 1799,2248.850 1798.204,2250.443 1796.777,2251.443 C 1793.732,2253.576 1792.939,2253.442 1788.428,2250.028" stroke="#000000" fill="#000000" stroke-width="1" />
  <path id="205" d="M 1783.137,2210.819 C 1781.088,2206.038 1778.937,2203.777 1776.855,2204.215 C 1776.001,2204.395 1775.500,2203.579 1775.500,2202.010 C 1775.500,2200.063 1776.675,2198.818 1780.883,2196.303 C 1785.995,2193.248 1786.412,2193.162 1789.161,2194.583 C 1791.055,2195.563 1793.256,2195.856 1795.528,2195.429 C 1798.279,2194.913 1799,2195.100 1799,2196.330 C 1799,2198.302 1797.853,2198.989 1792.127,2200.452 C 1792.127,2200.452 1787.500,2201.634 1787.500,2201.634 C 1787.500,2201.634 1787.500,2207.973 1787.500,2207.973 C 1787.500,2215.823 1785.767,2216.954 1783.137,2210.819" stroke="#000000" fill="#000000" stroke-width="1" />
  <path id="205" d="M 1768.746,2222.750 C 1767.250,2218.303 1771.353,2215.846 1773.462,2219.926 C 1774.860,2222.629 1774.819,2222.815 1772.719,2223.378 C 1769.589,2224.217 1769.220,2224.158 1768.746,2222.750" stroke="#000000" fill="#000000" stroke-width="1" />
  <path id="205" d="M 1756.635,2353.492 C 1756.250,2352.490 1754.958,2352.071 1752.779,2352.242 C 1750.150,2352.449 1749.451,2352.104 1749.245,2350.500 C 1748.756,2346.688 1750.172,2345.887 1754.955,2347.272 C 1760.093,2348.760 1762.017,2351.070 1760.070,2353.416 C 1758.422,2355.402 1757.377,2355.425 1756.635,2353.492" stroke="#000000" fill="#000000" stroke-width="1" />
  <path id="205" d="M 1755.849,2146.515 C 1755.532,2146.198 1755.986,2144.364 1756.858,2142.439 C 1758.924,2137.881 1761.500,2138.200 1761.500,2143.014 C 1761.500,2146.002 1761.138,2146.542 1758.963,2146.796 C 1757.567,2146.959 1756.166,2146.832 1755.849,2146.515" stroke="#000000" fill="#000000" stroke-width="1" />
  <path id="205" d="M 1617,2499.623 C 1617,2498.157 1619.750,2495.417 1620.484,2496.151 C 1620.724,2496.391 1620.661,2497.580 1620.344,2498.794 C 1619.717,2501.191 1617,2501.865 1617,2499.623" stroke="#000000" fill="#000000" stroke-width="1" />
  <path id="205" d="M 1851,2407 C 1851,2404.467 1851.389,2404 1853.500,2404 C 1856.206,2404 1856.582,2405.045 1854.965,2408.066 C 1853.339,2411.104 1851,2410.475 1851,2407" stroke="#000000" fill="#000000" stroke-width="1" />
  <path id="205" d="M 1838.403,2242.156 C 1839.780,2239.927 1836.645,2233.865 1831.913,2229.611 C 1827.632,2225.762 1827.037,2224.799 1827.920,2223.149 C 1828.961,2221.205 1833.796,2219 1837.019,2219 C 1838.868,2219 1840.129,2222.670 1841.980,2233.434 C 1843.501,2242.280 1843.385,2243 1840.441,2243 C 1839.034,2243 1838.116,2242.620 1838.403,2242.156" stroke="#000000" fill="#000000" stroke-width="1" />
  <path id="205" d="M 1831.250,2311.753 C 1826.272,2310.156 1827.258,2308.663 1832.750,2309.480 C 1838.126,2310.280 1838.458,2310.450 1837.541,2311.933 C 1836.764,2313.190 1835.630,2313.158 1831.250,2311.753" stroke="#000000" fill="#000000" stroke-width="1" />
  <path id="205" d="M 2019.323,2320.399 C 2018.312,2317.764 2023.094,2315.725 2024.594,2318.152 C 2024.985,2318.786 2024.476,2319.911 2023.462,2320.652 C 2021.053,2322.413 2020.073,2322.353 2019.323,2320.399" stroke="#000000" fill="#000000" stroke-width="1" />
  <path id="205" d="M 1961.895,2221.750 C 1962.974,2218.827 1966,2218.142 1966,2220.820 C 1966,2222.608 1964.226,2224 1961.950,2224 C 1961.452,2224 1961.428,2223.015 1961.895,2221.750" stroke="#000000" fill="#000000" stroke-width="1" />
  <path id="205" d="M 1866,2215.107 C 1866,2214.066 1866.638,2212.969 1867.417,2212.670 C 1869.249,2211.967 1870.472,2215.084 1868.784,2216.155 C 1866.763,2217.437 1866,2217.150 1866,2215.107" stroke="#000000" fill="#000000" stroke-width="1" />
  <path id="205" d="M 1864.667,2096.333 C 1863.380,2095.046 1864.019,2093.228 1865.935,2092.727 C 1867.727,2092.258 1869,2093.652 1869,2096.082 C 1869,2097.137 1865.664,2097.331 1864.667,2096.333" stroke="#000000" fill="#000000" stroke-width="1" />
  <path id="205" d="M 1817.667,2352.333 C 1816.324,2350.990 1817.079,2349.931 1820.559,2348.271 C 1823.609,2346.816 1824.244,2346.778 1825.002,2348.004 C 1826.398,2350.263 1819.605,2354.271 1817.667,2352.333" stroke="#000000" fill="#000000" stroke-width="1" />
  <path id="205" d="M 1699,2432.107 C 1699,2429.498 1700.449,2428 1702.973,2428 C 1704.479,2428 1705.195,2433.260 1703.808,2434.140 C 1700.984,2435.931 1699,2435.093 1699,2432.107" stroke="#000000" fill="#000000" stroke-width="1" />
  <path id="205" d="M 1643.503,2509.750 C 1644.542,2504.650 1649.737,2494.038 1651.531,2493.350 C 1654.386,2492.254 1656.515,2495.590 1656.354,2500.910 C 1656.274,2503.569 1655.697,2506.697 1655.074,2507.862 C 1653.670,2510.485 1648.968,2513 1645.470,2513 C 1643.035,2513 1642.890,2512.760 1643.503,2509.750" stroke="#000000" fill="#000000" stroke-width="1" />
  <path id="205" d="M 1541.644,2485.515 C 1541.315,2484.658 1541.857,2483.612 1542.927,2483.039 C 1544.396,2482.253 1544.883,2482.444 1545.279,2483.959 C 1545.574,2485.088 1545.177,2486.102 1544.308,2486.435 C 1542.305,2487.204 1542.290,2487.199 1541.644,2485.515" stroke="#000000" fill="#000000" stroke-width="1" />
  <path id="205" d="M 1928,2192.699 C 1928,2189.730 1930.570,2186.016 1932.628,2186.008 C 1935.906,2185.996 1937.533,2188.534 1936.168,2191.530 C 1935.281,2193.477 1934.296,2194 1931.521,2194 C 1929.297,2194 1928,2193.520 1928,2192.699" stroke="#000000" fill="#000000" stroke-width="1" />
  <path id="205" d="M 1868.184,2374.259 C 1868.560,2370.999 1871.503,2369.993 1872.255,2372.867 C 1872.819,2375.022 1871.373,2377 1869.234,2377 C 1868.334,2377 1867.976,2376.064 1868.184,2374.259" stroke="#000000" fill="#000000" stroke-width="1" />
  <path id="205" d="M 1839,2260.703 C 1839,2259.124 1846.135,2252 1847.717,2252 C 1849.576,2252 1842.653,2261.879 1840.750,2261.942 C 1839.787,2261.974 1839,2261.416 1839,2260.703" stroke="#000000" fill="#000000" stroke-width="1" />
  <path id="205" d="M 1795.688,2213.250 C 1795.997,2211.188 1796.897,2208.825 1797.687,2208 C 1798.960,2206.670 1799.286,2206.721 1800.561,2208.441 C 1802.614,2211.211 1802.341,2213.647 1799.777,2215.443 C 1796.116,2218.007 1795.059,2217.440 1795.688,2213.250" stroke="#000000" fill="#000000" stroke-width="1" />
  <path id="205" d="M 1776.787,2294 C 1777.101,2291.863 1777.779,2291 1779.145,2291 C 1780.200,2291 1781.324,2291.681 1781.643,2292.513 C 1782.373,2294.414 1780.303,2297 1778.051,2297 C 1776.726,2297 1776.445,2296.332 1776.787,2294" stroke="#000000" fill="#000000" stroke-width="1" />
  <path id="205" d="M 1775,2088.107 C 1775,2087.066 1775.692,2085.949 1776.538,2085.624 C 1778.545,2084.854 1779.746,2087.914 1777.896,2089.086 C 1775.761,2090.438 1775,2090.180 1775,2088.107" stroke="#000000" fill="#000000" stroke-width="1" />
  <path id="205" d="M 1722.162,2403.122 C 1720.393,2402.001 1721.072,2397.602 1723.072,2397.221 C 1724.506,2396.948 1727,2400.647 1727,2403.047 C 1727,2404.223 1723.973,2404.270 1722.162,2403.122" stroke="#000000" fill="#000000" stroke-width="1" />
  <path id="205" d="M 1702.667,2566.333 C 1701.433,2565.100 1701.986,2559.256 1703.452,2558.040 C 1705.118,2556.658 1709.002,2557.552 1708.996,2559.317 C 1708.991,2560.969 1705.211,2567 1704.181,2567 C 1703.715,2567 1703.034,2566.700 1702.667,2566.333" stroke="#000000" fill="#000000" stroke-width="1" />
  <path id="205" d="M 1667.390,2508.573 C 1666.440,2506.098 1667.434,2502.533 1669.165,2502.203 C 1671.318,2501.793 1672.447,2505.297 1671.020,2507.962 C 1669.748,2510.338 1668.169,2510.604 1667.390,2508.573" stroke="#000000" fill="#000000" stroke-width="1" />
  <path id="205" d="M 1565.495,2487.991 C 1563.980,2485.540 1568.677,2480.064 1571.041,2481.525 C 1572.390,2482.358 1572.236,2486.364 1570.800,2487.800 C 1569.338,2489.262 1566.347,2489.370 1565.495,2487.991" stroke="#000000" fill="#000000" stroke-width="1" />
  <path id="205" d="M 1926.190,2145.250 C 1926.375,2144.288 1927.415,2143.500 1928.500,2143.500 C 1929.585,2143.500 1930.625,2144.288 1930.810,2145.250 C 1931.062,2146.561 1930.482,2147 1928.500,2147 C 1926.518,2147 1925.938,2146.561 1926.190,2145.250" stroke="#000000" fill="#000000" stroke-width="1" />
  <path id="205" d="M 1802.533,2233.053 C 1801.654,2231.630 1802.774,2230 1804.632,2230 C 1805.508,2230 1806.010,2230.702 1805.823,2231.667 C 1805.433,2233.675 1803.438,2234.517 1802.533,2233.053" stroke="#000000" fill="#000000" stroke-width="1" />
  <path id="205" d="M 1797.362,2124.500 C 1796.567,2122.428 1797.646,2120 1799.362,2120 C 1801.078,2120 1802.157,2122.428 1801.362,2124.500 C 1801.045,2125.325 1800.145,2126 1799.362,2126 C 1798.579,2126 1797.679,2125.325 1797.362,2124.500" stroke="#000000" fill="#000000" stroke-width="1" />
  <path id="205" d="M 1746,2233.355 C 1746,2232.744 1746.634,2230.727 1747.409,2228.872 C 1748.184,2227.017 1748.593,2224.326 1751,2221.097 C 1751,2222.216 1751.497,2224.060 1752.104,2225.195 C 1753.050,2226.962 1752.691,2227.775 1749.604,2230.862 C 1747.622,2232.844 1746,2233.966 1746,2233.355" stroke="#000000" fill="#000000" stroke-width="1" />
  <path id="205" d="M 1740.188,2166.261 C 1740.674,2163.739 1743.682,2163.537 1744.968,2165.940 C 1745.972,2167.815 1745.791,2168 1742.962,2168 C 1740.548,2168 1739.928,2167.611 1740.188,2166.261" stroke="#000000" fill="#000000" stroke-width="1" />
  <path id="205" d="M 1737.323,2388.399 C 1736.608,2386.535 1738.554,2385.037 1741.719,2385.015 C 1743.414,2385.003 1743.785,2385.413 1743.292,2386.750 C 1742.045,2390.131 1738.376,2391.144 1737.323,2388.399" stroke="#000000" fill="#000000" stroke-width="1" />
  <path id="205" d="M 1703,2421.250 C 1703,2420.183 1703.883,2418.511 1704.962,2417.534 C 1706.041,2416.557 1707.427,2414.237 1708.040,2412.379 C 1708.653,2410.520 1709.553,2409 1710.039,2409 C 1710.878,2409 1713.481,2416.923 1712.816,2417.455 C 1712.642,2417.594 1710.363,2418.941 1707.750,2420.449 C 1703.324,2423.003 1703,2423.058 1703,2421.250" stroke="#000000" fill="#000000" stroke-width="1" />
  <path id="205" d="M 1574.283,2448.813 C 1574.909,2441.906 1577.223,2439.063 1582.250,2439.022 C 1584.812,2439.001 1585,2439.284 1585,2443.155 C 1585,2446.709 1584.415,2447.866 1580.958,2451.155 C 1574.934,2456.885 1573.594,2456.415 1574.283,2448.813" stroke="#000000" fill="#000000" stroke-width="1" />
  <path id="205" d="M 1829.303,2289.208 C 1828.421,2288.647 1828.700,2287.401 1830.362,2284.474 C 1832.280,2281.095 1833.058,2280.540 1835.559,2280.767 C 1840.827,2281.245 1842.936,2281.997 1842.548,2283.260 C 1842.338,2283.942 1841.895,2285.738 1841.564,2287.250 C 1841,2289.825 1840.630,2289.999 1835.731,2289.985 C 1832.854,2289.977 1829.961,2289.627 1829.303,2289.208" stroke="#000000" fill="#000000" stroke-width="1" />
  <path id="205" d="M 1810,2308.500 C 1810,2305.778 1810.085,2305.712 1812.418,2306.607 C 1815.171,2307.663 1813.652,2311 1810.418,2311 C 1810.188,2311 1810,2309.875 1810,2308.500" stroke="#000000" fill="#000000" stroke-width="1" />
  <path id="205" d="M 1786.073,2394.365 C 1784.146,2391.915 1783.237,2388 1784.596,2388 C 1785.462,2388 1791.372,2392.220 1792.231,2393.452 C 1792.918,2394.436 1790.496,2397 1788.881,2397 C 1788.476,2397 1787.213,2395.814 1786.073,2394.365" stroke="#000000" fill="#000000" stroke-width="1" />
  <path id="205" d="M 1781,2259.469 C 1781,2256.184 1778.651,2255.344 1775.406,2257.470 C 1772.587,2259.317 1771.419,2258.957 1772.351,2256.528 C 1772.952,2254.961 1775.196,2253.850 1780.207,2252.638 C 1782.697,2252.036 1783.013,2252.311 1784.139,2256.070 C 1785.162,2259.484 1785.128,2260.306 1783.932,2261.063 C 1781.639,2262.514 1781,2262.167 1781,2259.469" stroke="#000000" fill="#000000" stroke-width="1" />
  <path id="205" d="M 1759,2372.107 C 1759,2371.066 1759.638,2369.969 1760.417,2369.670 C 1762.249,2368.967 1763.472,2372.084 1761.784,2373.155 C 1759.763,2374.437 1759,2374.150 1759,2372.107" stroke="#000000" fill="#000000" stroke-width="1" />
  <path id="205" d="M 1864.170,2075.828 C 1864.351,2074.548 1865.138,2073.500 1865.917,2073.500 C 1868.241,2073.500 1868.283,2075.778 1865.981,2077.010 C 1864.054,2078.041 1863.873,2077.923 1864.170,2075.828" stroke="#000000" fill="#000000" stroke-width="1" />
  <path id="205" d="M 1821.976,2156.013 C 1817.119,2150.675 1817.573,2148.942 1823.103,2151.701 C 1826.055,2153.174 1826.403,2153.170 1827.514,2151.650 C 1828.928,2149.717 1832.090,2149.490 1833.800,2151.200 C 1835.459,2152.859 1835.305,2155 1833.526,2155 C 1832.715,2155 1831.353,2156.350 1830.500,2158 C 1829.647,2159.650 1828.397,2160.997 1827.724,2160.993 C 1827.051,2160.989 1824.464,2158.748 1821.976,2156.013" stroke="#000000" fill="#000000" stroke-width="1" />
  <path id="205" d="M 1817.406,2175.848 C 1816.553,2174.467 1819.642,2172 1822.223,2172 C 1824.554,2172 1825.747,2174.914 1823.896,2176.086 C 1821.913,2177.342 1818.246,2177.207 1817.406,2175.848" stroke="#000000" fill="#000000" stroke-width="1" />
  <path id="205" d="M 1704,2446.368 C 1704,2444.165 1707.683,2438.336 1709.520,2437.631 C 1711.430,2436.898 1711.463,2439.371 1709.564,2440.947 C 1708.774,2441.603 1707.839,2443.457 1707.485,2445.069 C 1706.810,2448.141 1704,2449.188 1704,2446.368" stroke="#000000" fill="#000000" stroke-width="1" />
  <path id="205" d="M 1627.773,2463.250 C 1628.480,2459.329 1629.833,2458 1633.122,2458 C 1635.507,2458 1636,2458.418 1636,2460.443 C 1636,2463.197 1632.679,2466 1629.416,2466 C 1627.629,2466 1627.359,2465.547 1627.773,2463.250" stroke="#000000" fill="#000000" stroke-width="1" />
  </g></svg>